<svg width="158" height="52" viewBox="0 0 158 52" fill="none" xmlns="http://www.w3.org/2000/svg">
<path id="Vector 6" d="M3.60936 50.5916C3.17329 51.2959 2.24878 51.5134 1.54441 51.0774C0.840041 50.6413 0.622543 49.7168 1.05861 49.0124L3.60936 50.5916ZM79.6881 5.77596L79.3186 4.32217L79.6881 5.77596ZM157.235 14.8237C157.472 15.6175 157.021 16.4532 156.227 16.6904L143.292 20.555C142.498 20.7921 141.663 20.3409 141.425 19.5472C141.188 18.7534 141.639 17.9177 142.433 17.6805L153.931 14.2453L150.496 2.74752C150.259 1.95377 150.71 1.11805 151.504 0.880895C152.297 0.643739 153.133 1.09496 153.37 1.88871L157.235 14.8237ZM2.33398 49.802C1.05861 49.0124 1.05917 49.0115 1.05979 49.0105C1.06008 49.0101 1.06077 49.0089 1.06137 49.008C1.06257 49.0061 1.06404 49.0037 1.06579 49.0009C1.06929 48.9953 1.07391 48.988 1.07965 48.9789C1.09112 48.9608 1.10709 48.9357 1.12765 48.9039C1.16877 48.8404 1.22824 48.7498 1.30678 48.6336C1.46385 48.4012 1.69722 48.0661 2.01267 47.6389C2.6436 46.7845 3.60285 45.5614 4.9368 44.0536C7.60496 41.0377 11.771 36.8841 17.8049 32.2636C29.8769 23.0193 49.4009 11.925 79.3186 4.32217L80.0575 7.22975C50.5242 14.7349 31.3711 25.6537 19.6288 34.6454C13.7556 39.1429 9.73018 43.1631 7.18369 46.0414C5.91032 47.4807 5.00644 48.6349 4.42606 49.4209C4.13587 49.8139 3.92654 50.1149 3.79234 50.3135C3.72524 50.4128 3.67692 50.4865 3.64666 50.5332C3.63153 50.5566 3.62092 50.5733 3.61473 50.5831C3.61163 50.588 3.60965 50.5911 3.60876 50.5925C3.60831 50.5933 3.60814 50.5935 3.60824 50.5934C3.60829 50.5933 3.60857 50.5928 3.60859 50.5928C3.60894 50.5922 3.60936 50.5916 2.33398 49.802ZM79.3186 4.32217C99.5514 -0.819495 118.85 1.59534 133.049 5.26799C140.156 7.10595 146.005 9.264 150.082 10.9651C152.122 11.8159 153.72 12.553 154.812 13.0798C155.358 13.3432 155.778 13.5541 156.064 13.7003C156.207 13.7734 156.316 13.8304 156.391 13.8697C156.428 13.8894 156.457 13.9046 156.477 13.9153C156.487 13.9206 156.495 13.9248 156.5 13.9278C156.503 13.9293 156.505 13.9305 156.507 13.9314C156.508 13.9318 156.509 13.9323 156.509 13.9325C156.51 13.9329 156.51 13.9332 155.798 15.2531C155.085 16.573 155.085 16.5732 155.085 16.5733C155.085 16.5732 155.085 16.5732 155.085 16.5731C155.085 16.5728 155.084 16.5722 155.082 16.5714C155.079 16.5696 155.073 16.5667 155.066 16.5626C155.05 16.5545 155.026 16.5418 154.994 16.5247C154.929 16.4905 154.83 16.4387 154.697 16.3708C154.431 16.2349 154.033 16.0347 153.509 15.782C152.461 15.2767 150.912 14.562 148.927 13.7338C144.955 12.0769 139.243 9.96852 132.298 8.17241C118.397 4.5769 99.6408 2.25315 80.0575 7.22975L79.3186 4.32217Z" fill="#EDDB51"/>
</svg>
