<svg fill="none" viewBox="0 0 1060 161">
  <path fill="#C2D0E1" fill-opacity=".3" d="M-3.25 161.548c-3.315 1.472-5.235 4.394-4.282 6.529.953 2.135 4.406 2.676 7.725 1.204 3.318-1.471 5.234-4.397 4.282-6.532-.953-2.135-4.41-2.673-7.725-1.201ZM151.23 30.6c-1.073 3.492-4.601 3.385-8.506 5.726-5.708 3.434-9.271 1.477-9.269-1.605.003-3.082 3.913-4.614 4.72-7.733l.004-.028.005-.032c.931-3.099-1.623-6.42-.029-9.056 1.593-2.636 5.657-2.468 8.759 3.425 2.139 4.014 5.206 5.758 4.316 9.303ZM704.339 118.863c-1.073 3.492-4.601 3.385-8.507 5.725-5.707 3.435-9.271 1.478-9.268-1.604.002-3.082 3.912-4.614 4.719-7.733l.005-.028.005-.032c.93-3.099-1.623-6.421-.03-9.057 1.593-2.635 5.657-2.468 8.76 3.426 2.139 4.013 5.206 5.757 4.316 9.303ZM151.471 39.825c-2.137-2.696-5.279-3.766-7.017-2.392-1.738 1.375-1.415 4.675.719 7.37 2.134 2.696 5.28 3.763 7.018 2.388 1.738-1.374 1.418-4.674-.72-7.366ZM704.581 128.088c-2.138-2.696-5.28-3.766-7.018-2.392-1.738 1.375-1.414 4.675.719 7.37 2.134 2.695 5.28 3.763 7.018 2.388 1.739-1.374 1.418-4.674-.719-7.366ZM156.219 22.832c-3.224 1.201-6.467.49-7.24-1.587-.773-2.076 1.21-4.732 4.434-5.93 3.224-1.198 6.464-.49 7.24 1.586.777 2.078-1.214 4.733-4.434 5.93ZM709.327 111.095c-3.224 1.201-6.467.49-7.24-1.587-.773-2.076 1.21-4.733 4.434-5.93 3.224-1.198 6.464-.491 7.241 1.586.776 2.077-1.214 4.732-4.435 5.931ZM160.332 34.12c-3.271-1.57-6.741-1.138-7.744.968-1.002 2.106.818 5.087 4.086 6.661 3.267 1.574 6.745 1.139 7.744-.968.999-2.106-.815-5.086-4.086-6.66ZM713.442 122.383c-3.272-1.571-6.742-1.138-7.744.968-1.003 2.106.818 5.087 4.085 6.661 3.268 1.574 6.745 1.139 7.744-.968.999-2.106-.814-5.086-4.085-6.661ZM160.842 32.297c-3.613-.348-6.359-2.514-6.134-4.842.225-2.328 3.333-3.927 6.945-3.579 3.612.348 6.358 2.517 6.133 4.842-.224 2.324-3.332 3.927-6.944 3.579ZM713.951 120.559c-3.612-.348-6.358-2.513-6.133-4.841.225-2.328 3.332-3.927 6.944-3.579 3.612.348 6.358 2.517 6.134 4.842-.225 2.324-3.333 3.926-6.945 3.578ZM312.479 48.772c-1.389 3.386-4.89 2.955-8.98 4.934-5.997 2.9-9.373.627-9.088-2.438.286-3.066 4.319-4.239 5.409-7.272l.005-.032.004-.028c1.202-2.987-1.033-6.54.792-9.023 1.826-2.483 5.86-1.948 8.414 4.207 1.756 4.176 4.641 6.198 3.444 9.652ZM865.588 137.034c-1.388 3.387-4.889 2.956-8.979 4.935-5.998 2.901-9.374.627-9.088-2.438.285-3.066 4.318-4.239 5.408-7.273l.005-.031.005-.028c1.201-2.988-1.034-6.54.792-9.023 1.825-2.483 5.859-1.948 8.414 4.207 1.755 4.176 4.64 6.198 3.443 9.651ZM311.882 57.977c-1.885-2.876-4.917-4.228-6.773-3.017-1.857 1.211-1.835 4.528.049 7.407 1.883 2.88 4.912 4.227 6.769 3.016 1.856-1.21 1.835-4.528-.045-7.406ZM864.991 146.24c-1.884-2.876-4.916-4.228-6.773-3.017-1.856 1.211-1.835 4.528.049 7.407 1.884 2.879 4.913 4.227 6.769 3.016 1.857-1.211 1.835-4.528-.045-7.406ZM318.149 41.487c-3.319.912-6.488-.101-7.064-2.236-.575-2.136 1.635-4.604 4.955-5.505 3.321-.9 6.489.102 7.068 2.238.579 2.136-1.638 4.603-4.959 5.503ZM871.259 129.75c-3.319.912-6.489-.102-7.064-2.237-.576-2.135 1.634-4.603 4.955-5.504 3.321-.9 6.488.102 7.067 2.238.579 2.135-1.637 4.602-4.958 5.503ZM321.223 53.104c-3.112-1.863-6.611-1.745-7.814.256-1.202 2.002.35 5.142 3.464 7.002 3.113 1.86 6.611 1.749 7.814-.256 1.203-2.006-.351-5.139-3.464-7.002ZM874.333 141.367c-3.113-1.863-6.612-1.746-7.814.256-1.203 2.002.35 5.142 3.463 7.001 3.113 1.86 6.611 1.749 7.814-.256 1.203-2.005-.351-5.138-3.463-7.001ZM321.898 51.335c-3.567-.676-6.105-3.083-5.672-5.377.433-2.295 3.68-3.612 7.244-2.94 3.563.673 6.104 3.083 5.667 5.381-.437 2.298-3.675 3.608-7.239 2.936ZM875.006 139.598c-3.566-.676-6.104-3.083-5.671-5.377.433-2.295 3.679-3.612 7.243-2.94 3.564.673 6.104 3.083 5.667 5.381-.437 2.298-3.675 3.608-7.239 2.936ZM472.751 107.217c-2.118 2.981-5.435 1.779-9.864 2.787-6.5 1.484-9.276-1.487-8.303-4.425.973-2.937 5.162-3.142 6.906-5.866l.005-.028.004-.025c1.868-2.638.473-6.605 2.825-8.61 2.353-2.005 6.149-.573 7.25 5.995.767 4.476 3.132 7.082 1.177 10.172ZM470.088 116.052c-1.185-3.225-3.835-5.224-5.916-4.464-2.08.761-2.809 3.997-1.628 7.225 1.181 3.229 3.835 5.224 5.916 4.46 2.082-.763 2.812-3.992 1.628-7.221ZM479.921 101.401c-3.44.131-6.295-1.558-6.381-3.773-.086-2.216 2.632-4.112 6.072-4.243 3.439-.13 6.294 1.558 6.377 3.77.083 2.21-2.634 4.121-6.068 4.246ZM480.289 113.417c-2.615-2.512-6.048-3.189-7.669-1.507-1.621 1.682-.815 5.085 1.792 7.6 2.607 2.515 6.048 3.189 7.669 1.507 1.621-1.682.824-5.094-1.792-7.6ZM481.345 111.836c-3.322-1.46-5.25-4.379-4.307-6.516.942-2.137 4.405-2.686 7.717-1.228 3.311 1.458 5.25 4.375 4.311 6.513-.939 2.138-4.399 2.691-7.721 1.231ZM71.777 4.89c1.415 3.373-1.36 5.556-2.841 9.837-2.18 6.289-6.172 7.074-8.145 4.704-1.972-2.37.045-6.049-1.338-8.963l.004-.025.004-.024c-1.27-2.965-5.364-3.892-5.837-6.938-.473-3.047 2.763-5.513 8.922-2.974 4.172 1.727 7.641 1.092 9.231 4.382ZM624.887 93.152c1.414 3.374-1.361 5.557-2.842 9.838-2.179 6.288-6.171 7.074-8.144 4.704-1.973-2.37.044-6.049-1.339-8.963l.004-.025.004-.025c-1.27-2.964-5.364-3.891-5.837-6.938-.473-3.046 2.763-5.512 8.922-2.973 4.172 1.726 7.642 1.092 9.232 4.382ZM77.88 11.819c-3.368-.699-6.464.49-6.93 2.657-.467 2.167 1.91 4.493 5.28 5.178 3.37.684 6.467-.487 6.93-2.654.463-2.167-1.913-4.479-5.28-5.181ZM630.988 100.082c-3.368-.699-6.464.491-6.93 2.657-.467 2.167 1.91 4.493 5.281 5.178 3.37.684 6.467-.487 6.93-2.654.463-2.167-1.913-4.479-5.281-5.181ZM70.621-4.265C68.916-1.29 65.973.248 64.046-.851c-1.927-1.1-2.109-4.406-.401-7.391 1.707-2.986 4.648-4.514 6.575-3.415 1.927 1.1 2.104 4.409.401 7.392ZM623.731 83.998c-1.706 2.974-4.648 4.513-6.575 3.414-1.927-1.1-2.109-4.406-.402-7.391 1.707-2.986 4.648-4.514 6.575-3.415 1.927 1.1 2.105 4.409.402 7.392ZM81.023 1.773c-3.52.88-5.907 3.442-5.335 5.706.573 2.265 3.888 3.385 7.41 2.498 3.52-.886 5.902-3.439 5.33-5.707-.572-2.268-3.889-3.377-7.405-2.497ZM634.132 90.035c-3.52.88-5.907 3.442-5.334 5.707.573 2.265 3.888 3.384 7.409 2.498 3.52-.887 5.903-3.44 5.33-5.707-.572-2.269-3.889-3.378-7.405-2.498ZM80.24.041c-2.994 2.047-6.485 2.14-7.81.192-1.325-1.949.037-5.148 3.032-7.195 2.995-2.046 6.487-2.14 7.811-.191 1.325 1.948-.034 5.152-3.032 7.194ZM633.35 88.304c-2.995 2.047-6.486 2.14-7.811.192-1.324-1.949.038-5.148 3.033-7.195 2.995-2.046 6.486-2.14 7.811-.191 1.324 1.948-.035 5.152-3.033 7.194ZM234.795 12.707c.194 3.64-3.159 4.76-6.006 8.295-4.18 5.184-8.205 4.572-9.255 1.675-1.05-2.897 2.087-5.675 1.785-8.882a.09.09 0 0 0 .004-.028l.005-.028c-.207-3.22-3.73-5.474-3.144-8.499.586-3.024 4.466-4.257 9.408.213 3.342 3.026 6.819 3.608 7.203 7.254ZM787.904 100.97c.193 3.64-3.159 4.759-6.006 8.295-4.181 5.184-8.206 4.571-9.256 1.674-1.05-2.896 2.088-5.674 1.785-8.881a.092.092 0 0 0 .005-.028l.004-.028c-.206-3.22-3.73-5.474-3.144-8.499.586-3.025 4.466-4.258 9.409.212 3.342 3.026 6.819 3.61 7.203 7.255ZM238.192 21.278c-2.932-1.798-6.25-1.723-7.409.163-1.159 1.886.277 4.877 3.208 6.675 2.932 1.798 6.254 1.724 7.413-.162 1.158-1.886-.277-4.877-3.212-6.676ZM791.301 109.541c-2.932-1.798-6.25-1.724-7.409.162-1.159 1.886.277 4.878 3.209 6.676 2.931 1.798 6.253 1.724 7.412-.162 1.159-1.886-.277-4.877-3.212-6.676ZM236.807 3.692c-2.616 2.233-5.901 2.663-7.345.988-1.445-1.675-.49-4.86 2.123-7.091 2.612-2.23 5.901-2.663 7.346-.988 1.444 1.675.49 4.857-2.124 7.091ZM789.917 91.955c-2.617 2.233-5.902 2.663-7.346.988-1.444-1.675-.489-4.86 2.123-7.091 2.613-2.23 5.902-2.664 7.346-.988 1.444 1.675.49 4.857-2.123 7.09ZM244.553 12.881c-3.611-.355-6.705 1.246-6.952 3.578-.247 2.332 2.531 4.499 6.124 4.851 3.594.352 6.705-1.246 6.952-3.578.247-2.332-2.513-4.496-6.124-4.85ZM797.662 101.144c-3.611-.355-6.704 1.246-6.952 3.578-.247 2.332 2.532 4.499 6.125 4.851 3.593.352 6.704-1.246 6.952-3.578.247-2.332-2.514-4.496-6.125-4.851ZM244.403 10.999c-3.51.913-6.836-.183-7.425-2.443-.588-2.26 1.78-4.833 5.291-5.746 3.51-.914 6.836.182 7.424 2.442.589 2.26-1.778 4.83-5.29 5.747ZM797.512 99.261c-3.511.914-6.837-.182-7.425-2.442-.588-2.26 1.779-4.833 5.29-5.746 3.511-.914 6.837.182 7.425 2.442.588 2.26-1.779 4.83-5.29 5.746ZM395.979 52.794c-.579 3.61-4.066 4.015-7.58 6.888-5.155 4.226-8.969 2.792-9.405-.255-.437-3.048 3.211-5.13 3.562-8.334l.009-.056c.472-3.173-2.528-6.122-1.332-8.962s5.245-3.253 9.162 2.136c2.667 3.672 5.957 4.947 5.584 8.583ZM949.088 141.057c-.578 3.61-4.065 4.015-7.58 6.888-5.154 4.226-8.968 2.792-9.405-.256-.436-3.047 3.211-5.13 3.562-8.333l.009-.056c.473-3.173-2.527-6.122-1.331-8.963 1.196-2.84 5.244-3.252 9.161 2.137 2.667 3.672 5.958 4.947 5.584 8.583ZM397.541 61.894c-2.512-2.359-5.761-2.966-7.284-1.355-1.523 1.611-.731 4.828 1.771 7.189 2.501 2.36 5.765 2.967 7.288 1.36 1.522-1.608.728-4.84-1.775-7.194ZM950.65 150.157c-2.513-2.359-5.762-2.966-7.285-1.355-1.523 1.611-.73 4.827 1.771 7.188 2.502 2.361 5.765 2.967 7.288 1.36 1.522-1.608.729-4.839-1.774-7.193ZM399.798 44.394c-3.018 1.649-6.33 1.41-7.395-.533-1.066-1.943.518-4.858 3.536-6.507 3.018-1.65 6.33-1.41 7.395.532 1.065 1.943-.518 4.858-3.536 6.508ZM952.906 132.656c-3.018 1.65-6.33 1.411-7.395-.532-1.065-1.943.518-4.858 3.536-6.507s6.33-1.411 7.396.532c1.065 1.943-.519 4.858-3.537 6.507ZM405.491 54.975c-3.46-1.089-6.84-.161-7.536 2.066-.697 2.227 1.539 4.917 4.999 6.006 3.461 1.089 6.841.162 7.538-2.07.697-2.23-1.536-4.916-5.001-6.002ZM958.6 143.238c-3.461-1.089-6.84-.161-7.537 2.066-.697 2.227 1.539 4.917 5 6.006 3.461 1.089 6.84.162 7.537-2.069.697-2.231-1.535-4.917-5-6.003ZM405.733 53.102c-3.641.17-6.653-1.58-6.767-3.911-.114-2.332 2.735-4.37 6.359-4.543 3.623-.173 6.652 1.579 6.766 3.91.114 2.333-2.734 4.367-6.358 4.544ZM958.842 141.364c-3.641.171-6.652-1.578-6.766-3.91-.114-2.332 2.734-4.37 6.358-4.543 3.623-.174 6.653 1.579 6.767 3.911.114 2.332-2.735 4.365-6.359 4.542ZM552.338 115.788c-.578 3.611-4.065 4.015-7.58 6.888-5.154 4.227-8.968 2.792-9.405-.255-.436-3.048 3.211-5.127 3.562-8.333l.009-.057c.475-3.19-2.527-6.122-1.331-8.962 1.196-2.84 5.244-3.252 9.161 2.136 2.667 3.673 5.958 4.947 5.584 8.583ZM553.9 124.885c-2.512-2.362-5.761-2.97-7.284-1.359-1.523 1.611-.73 4.828 1.771 7.189 2.502 2.361 5.765 2.97 7.288 1.359 1.523-1.611.717-4.833-1.775-7.189ZM556.156 107.388c-3.018 1.649-6.33 1.411-7.395-.532-1.065-1.943.518-4.858 3.536-6.508 3.018-1.65 6.33-1.41 7.395.536 1.065 1.946-.518 4.854-3.536 6.504ZM561.853 117.97c-3.461-1.085-6.84-.161-7.533 2.07-.694 2.231 1.535 4.917 4.997 6.002 3.461 1.085 6.84.162 7.537-2.069.697-2.231-1.539-4.917-5.001-6.003ZM562.093 116.092c-3.623.174-6.652-1.579-6.766-3.91-.114-2.332 2.734-4.37 6.358-4.543 3.623-.174 6.653 1.579 6.766 3.914.114 2.336-2.735 4.369-6.358 4.539Z"/>
</svg>
