<svg width="1920" height="220" viewBox="0 0 1920 220" fill="none" xmlns="http://www.w3.org/2000/svg">
<g clip-path="url(#clip0_1606_18411)">
<path d="M950.908 14.5066C947.518 12.6343 945.555 8.91708 946.529 6.20164C947.503 3.48621 951.036 2.79715 954.429 4.66939C957.823 6.54164 959.782 10.2634 958.808 12.9789C957.834 15.6943 954.298 16.3788 950.908 14.5066Z" fill="#C2D0E1" fill-opacity="0.3"/>
<path d="M1108.89 181.075C1107.79 176.634 1104.19 176.77 1100.19 173.793C1094.36 169.424 1090.71 171.914 1090.71 175.834C1090.72 179.754 1094.71 181.703 1095.54 185.67L1095.54 185.706C1095.54 185.706 1095.55 185.733 1095.55 185.746C1096.5 189.689 1093.89 193.914 1095.52 197.267C1097.15 200.62 1101.3 200.406 1104.48 192.91C1106.67 187.804 1109.8 185.586 1108.89 181.075Z" fill="#C2D0E1" fill-opacity="0.3"/>
<path d="M1674.54 68.8026C1673.44 64.3613 1669.84 64.4976 1665.84 61.5201C1660.01 57.1514 1656.36 59.6411 1656.36 63.5614C1656.37 67.4817 1660.37 69.43 1661.19 73.3975L1661.2 73.4333C1661.2 73.4333 1661.2 73.4601 1661.2 73.4735C1662.15 77.4159 1659.54 81.6416 1661.17 84.9943C1662.8 88.3469 1666.96 88.1335 1670.13 80.6371C1672.32 75.5317 1675.45 73.3133 1674.54 68.8026Z" fill="#C2D0E1" fill-opacity="0.3"/>
<path d="M1109.14 169.341C1106.95 172.771 1103.74 174.132 1101.96 172.384C1100.19 170.635 1100.52 166.437 1102.7 163.009C1104.88 159.58 1108.1 158.223 1109.88 159.971C1111.65 161.719 1111.33 165.917 1109.14 169.341Z" fill="#C2D0E1" fill-opacity="0.3"/>
<path d="M1674.79 57.0687C1672.6 60.4979 1669.39 61.8594 1667.61 60.1111C1665.83 58.3627 1666.17 54.1647 1668.35 50.7362C1670.53 47.3077 1673.75 45.9499 1675.53 47.6983C1677.3 49.4466 1676.98 53.644 1674.79 57.0687Z" fill="#C2D0E1" fill-opacity="0.3"/>
<path d="M1113.99 190.957C1110.7 189.429 1107.38 190.334 1106.59 192.975C1105.8 195.617 1107.83 198.996 1111.12 200.519C1114.42 202.042 1117.73 201.143 1118.53 198.501C1119.32 195.859 1117.29 192.482 1113.99 190.957Z" fill="#C2D0E1" fill-opacity="0.3"/>
<path d="M1679.65 78.6844C1676.35 77.1565 1673.03 78.0611 1672.24 80.7025C1671.45 83.3439 1673.48 86.7227 1676.78 88.2461C1680.07 89.7695 1683.39 88.8701 1684.18 86.228C1684.97 83.5858 1682.94 80.2086 1679.65 78.6844Z" fill="#C2D0E1" fill-opacity="0.3"/>
<path d="M1118.2 176.598C1114.86 178.596 1111.31 178.046 1110.28 175.367C1109.26 172.688 1111.12 168.896 1114.46 166.894C1117.8 164.892 1121.36 165.445 1122.38 168.125C1123.4 170.805 1121.55 174.595 1118.2 176.598Z" fill="#C2D0E1" fill-opacity="0.3"/>
<path d="M1683.85 64.325C1680.5 66.3235 1676.96 65.7731 1675.93 63.0942C1674.9 60.4154 1676.77 56.6238 1680.11 54.6215C1683.45 52.6193 1687.01 53.1728 1688.03 55.8523C1689.05 58.5319 1687.19 62.322 1683.85 64.325Z" fill="#C2D0E1" fill-opacity="0.3"/>
<path d="M1118.72 178.918C1115.03 179.36 1112.22 182.115 1112.45 185.076C1112.68 188.038 1115.86 190.071 1119.55 189.629C1123.25 189.186 1126.05 186.427 1125.82 183.47C1125.59 180.513 1122.42 178.475 1118.72 178.918Z" fill="#C2D0E1" fill-opacity="0.3"/>
<path d="M1684.37 66.645C1680.68 67.0877 1677.87 69.8422 1678.1 72.8035C1678.33 75.7648 1681.51 77.7986 1685.2 77.3559C1688.9 76.9133 1691.7 74.1543 1691.47 71.1974C1691.24 68.2406 1688.07 66.2023 1684.37 66.645Z" fill="#C2D0E1" fill-opacity="0.3"/>
<path d="M1273.8 157.961C1272.38 153.653 1268.8 154.202 1264.61 151.684C1258.48 147.995 1255.03 150.887 1255.32 154.786C1255.61 158.686 1259.74 160.177 1260.85 164.036C1260.85 164.036 1260.85 164.063 1260.86 164.077C1260.86 164.09 1260.86 164.077 1260.86 164.113C1262.09 167.912 1259.8 172.431 1261.67 175.59C1263.54 178.748 1267.66 178.068 1270.28 170.238C1272.07 164.926 1275.02 162.354 1273.8 157.961Z" fill="#C2D0E1" fill-opacity="0.3"/>
<path d="M1839.45 45.6883C1838.03 41.3803 1834.45 41.929 1830.26 39.4114C1824.13 35.7217 1820.68 38.6138 1820.97 42.5132C1821.26 46.4126 1825.39 47.9041 1826.5 51.7635C1826.5 51.7635 1826.5 51.7904 1826.5 51.8038C1826.51 51.8172 1826.5 51.8038 1826.51 51.8396C1827.74 55.6394 1825.45 60.1582 1827.32 63.3166C1829.19 66.475 1833.31 65.7948 1835.92 57.9648C1837.72 52.653 1840.67 50.0814 1839.45 45.6883Z" fill="#C2D0E1" fill-opacity="0.3"/>
<path d="M1273.19 146.252C1271.26 149.909 1268.16 151.629 1266.26 150.089C1264.36 148.548 1264.38 144.329 1266.31 140.667C1268.24 137.005 1271.34 135.29 1273.23 136.831C1275.13 138.371 1275.11 142.59 1273.19 146.252Z" fill="#C2D0E1" fill-opacity="0.3"/>
<path d="M1838.84 33.9789C1836.91 37.6367 1833.81 39.3568 1831.91 37.8162C1830.01 36.2756 1830.03 32.0566 1831.96 28.3944C1833.89 24.7322 1836.98 23.0173 1838.88 24.5579C1840.78 26.0985 1840.76 30.3175 1838.84 33.9789Z" fill="#C2D0E1" fill-opacity="0.3"/>
<path d="M1279.6 167.227C1276.2 166.067 1272.96 167.356 1272.37 170.072C1271.78 172.788 1274.04 175.928 1277.44 177.073C1280.84 178.219 1284.07 176.944 1284.67 174.227C1285.26 171.511 1282.99 168.372 1279.6 167.227Z" fill="#C2D0E1" fill-opacity="0.3"/>
<path d="M1845.25 54.9542C1841.85 53.7945 1838.61 55.0835 1838.02 57.7994C1837.43 60.5154 1839.69 63.6551 1843.09 64.8007C1846.49 65.9463 1849.73 64.6714 1850.32 61.9547C1850.91 59.238 1848.64 56.0998 1845.25 54.9542Z" fill="#C2D0E1" fill-opacity="0.3"/>
<path d="M1282.74 152.45C1279.56 154.82 1275.98 154.67 1274.75 152.124C1273.52 149.578 1275.11 145.584 1278.29 143.218C1281.47 140.853 1285.05 140.993 1286.28 143.544C1287.51 146.095 1285.92 150.08 1282.74 152.45Z" fill="#C2D0E1" fill-opacity="0.3"/>
<path d="M1848.39 40.1776C1845.21 42.5477 1841.63 42.398 1840.4 39.8518C1839.17 37.3056 1840.76 33.3115 1843.94 30.9458C1847.12 28.5801 1850.7 28.7209 1851.93 31.2716C1853.16 33.8222 1851.57 37.8074 1848.39 40.1776Z" fill="#C2D0E1" fill-opacity="0.3"/>
<path d="M1283.43 154.7C1279.78 155.56 1277.19 158.621 1277.63 161.54C1278.07 164.459 1281.39 166.134 1285.04 165.279C1288.68 164.424 1291.28 161.358 1290.83 158.435C1290.39 155.512 1287.07 153.845 1283.43 154.7Z" fill="#C2D0E1" fill-opacity="0.3"/>
<path d="M1849.08 42.4273C1845.43 43.2877 1842.84 46.3487 1843.28 49.2676C1843.72 52.1866 1847.04 53.8615 1850.69 53.0063C1854.33 52.1511 1856.93 49.0849 1856.48 46.1622C1856.03 43.2395 1852.72 41.5721 1849.08 42.4273Z" fill="#C2D0E1" fill-opacity="0.3"/>
<path d="M1437.7 83.6163C1435.54 79.8244 1432.15 81.3546 1427.62 80.0723C1420.97 78.184 1418.13 81.9639 1419.12 85.7001C1420.12 89.4362 1424.4 89.6978 1426.19 93.1619L1426.19 93.1977L1426.2 93.229C1428.11 96.5852 1426.68 101.631 1429.09 104.181C1431.49 106.732 1435.37 104.911 1436.5 96.5555C1437.28 90.862 1439.7 87.5471 1437.7 83.6163Z" fill="#C2D0E1" fill-opacity="0.3"/>
<path d="M1434.98 72.3783C1433.77 76.4811 1431.06 79.0232 1428.93 78.0563C1426.8 77.0894 1426.06 72.9727 1427.26 68.8662C1428.47 64.7597 1431.19 62.2213 1433.31 63.1926C1435.44 64.164 1436.19 68.2711 1434.98 72.3783Z" fill="#C2D0E1" fill-opacity="0.3"/>
<path d="M1445.04 91.0155C1441.52 90.8491 1438.6 92.9969 1438.51 95.815C1438.42 98.6331 1441.2 101.045 1444.72 101.211C1448.24 101.378 1451.16 99.2298 1451.24 96.4169C1451.33 93.604 1448.55 91.1737 1445.04 91.0155Z" fill="#C2D0E1" fill-opacity="0.3"/>
<path d="M1445.41 75.7299C1442.74 78.9259 1439.23 79.7866 1437.57 77.6471C1435.91 75.5076 1436.74 71.1791 1439.4 67.98C1442.07 64.781 1445.59 63.9233 1447.25 66.0628C1448.9 68.2023 1448.09 72.5428 1445.41 75.7299Z" fill="#C2D0E1" fill-opacity="0.3"/>
<path d="M1446.49 77.7412C1443.09 79.5985 1441.12 83.311 1442.09 86.0296C1443.05 88.7483 1446.59 89.447 1449.98 87.5919C1453.37 85.7368 1455.35 82.0265 1454.39 79.3072C1453.43 76.5879 1449.89 75.884 1446.49 77.7412Z" fill="#C2D0E1" fill-opacity="0.3"/>
<path d="M1027.64 213.781C1029.08 209.489 1026.25 206.712 1024.73 201.266C1022.5 193.268 1018.42 192.268 1016.4 195.283C1014.39 198.297 1016.45 202.978 1015.03 206.685L1015.04 206.716L1015.04 206.747C1013.74 210.518 1009.56 211.698 1009.07 215.573C1008.59 219.447 1011.9 222.585 1018.2 219.355C1022.46 217.159 1026.01 217.966 1027.64 213.781Z" fill="#C2D0E1" fill-opacity="0.3"/>
<path d="M1593.29 101.508C1594.73 97.2164 1591.9 94.4398 1590.38 88.9937C1588.15 80.9948 1584.07 79.9954 1582.05 83.01C1580.03 86.0246 1582.1 90.7049 1580.68 94.4119L1580.69 94.4432L1580.69 94.4745C1579.39 98.2458 1575.21 99.4249 1574.72 103.3C1574.24 107.175 1577.55 110.312 1583.85 107.082C1588.11 104.886 1591.66 105.694 1593.29 101.508Z" fill="#C2D0E1" fill-opacity="0.3"/>
<path d="M1033.88 204.966C1030.43 205.855 1027.27 204.342 1026.79 201.586C1026.31 198.83 1028.74 195.87 1032.19 195C1035.64 194.129 1038.81 195.618 1039.28 198.375C1039.75 201.132 1037.32 204.073 1033.88 204.966Z" fill="#C2D0E1" fill-opacity="0.3"/>
<path d="M1599.53 92.6931C1596.08 93.5818 1592.92 92.069 1592.44 89.3131C1591.96 86.5571 1594.39 83.5978 1597.84 82.7269C1601.29 81.8561 1604.45 83.3458 1604.93 86.1025C1605.4 88.8591 1602.97 91.7999 1599.53 92.6931Z" fill="#C2D0E1" fill-opacity="0.3"/>
<path d="M1026.46 225.426C1024.71 221.641 1021.7 219.684 1019.73 221.082C1017.76 222.481 1017.57 226.687 1019.32 230.484C1021.07 234.282 1024.07 236.226 1026.04 234.828C1028.02 233.429 1028.2 229.22 1026.46 225.426Z" fill="#C2D0E1" fill-opacity="0.3"/>
<path d="M1592.11 113.153C1590.36 109.369 1587.35 107.411 1585.38 108.81C1583.41 110.208 1583.22 114.414 1584.97 118.212C1586.72 122.009 1589.72 123.953 1591.69 122.555C1593.67 121.156 1593.85 116.947 1592.11 113.153Z" fill="#C2D0E1" fill-opacity="0.3"/>
<path d="M1037.09 217.745C1033.49 216.626 1031.05 213.367 1031.64 210.486C1032.22 207.605 1035.61 206.181 1039.22 207.309C1042.82 208.437 1045.25 211.683 1044.67 214.569C1044.08 217.454 1040.69 218.865 1037.09 217.745Z" fill="#C2D0E1" fill-opacity="0.3"/>
<path d="M1602.74 105.472C1599.14 104.354 1596.7 101.094 1597.29 98.2134C1597.87 95.3327 1601.26 93.9084 1604.86 95.0361C1608.46 96.1638 1610.9 99.4107 1610.32 102.296C1609.73 105.181 1606.34 106.592 1602.74 105.472Z" fill="#C2D0E1" fill-opacity="0.3"/>
<path d="M1036.29 219.947C1033.23 217.344 1029.66 217.225 1028.31 219.704C1026.95 222.182 1028.34 226.252 1031.41 228.855C1034.47 231.458 1038.04 231.578 1039.39 229.099C1040.75 226.621 1039.36 222.545 1036.29 219.947Z" fill="#C2D0E1" fill-opacity="0.3"/>
<path d="M1601.94 107.675C1598.88 105.071 1595.31 104.952 1593.95 107.431C1592.6 109.909 1593.99 113.979 1597.05 116.582C1600.12 119.186 1603.69 119.305 1605.04 116.826C1606.4 114.348 1605.01 110.272 1601.94 107.675Z" fill="#C2D0E1" fill-opacity="0.3"/>
<path d="M1194.35 203.836C1194.55 199.206 1191.12 197.782 1188.21 193.284C1183.94 186.69 1179.82 187.47 1178.75 191.154C1177.67 194.839 1180.88 198.373 1180.57 202.452C1180.58 202.464 1180.58 202.476 1180.58 202.488L1180.58 202.524C1180.37 206.62 1176.77 209.487 1177.37 213.334C1177.97 217.181 1181.93 218.75 1186.99 213.064C1190.41 209.215 1193.96 208.474 1194.35 203.836Z" fill="#C2D0E1" fill-opacity="0.3"/>
<path d="M1760 91.5637C1760.2 86.9331 1756.77 85.5093 1753.86 81.012C1749.58 74.4176 1745.47 75.197 1744.39 78.882C1743.32 82.567 1746.53 86.1006 1746.22 90.1796C1746.22 90.1911 1746.22 90.2032 1746.22 90.2153L1746.23 90.2512C1746.02 94.3473 1742.41 97.2144 1743.01 101.062C1743.61 104.909 1747.58 106.478 1752.63 100.791C1756.05 96.9421 1759.61 96.201 1760 91.5637Z" fill="#C2D0E1" fill-opacity="0.3"/>
<path d="M1197.82 192.933C1194.83 195.221 1191.43 195.126 1190.25 192.727C1189.06 190.328 1190.53 186.523 1193.53 184.236C1196.53 181.948 1199.92 182.042 1201.11 184.441C1202.29 186.84 1200.83 190.645 1197.82 192.933Z" fill="#C2D0E1" fill-opacity="0.3"/>
<path d="M1763.48 80.6609C1760.48 82.9482 1757.08 82.8535 1755.9 80.4545C1754.71 78.0554 1756.18 74.2504 1759.18 71.9631C1762.18 69.6758 1765.58 69.7698 1766.76 72.1688C1767.95 74.5679 1766.48 78.3729 1763.48 80.6609Z" fill="#C2D0E1" fill-opacity="0.3"/>
<path d="M1196.41 215.304C1193.74 212.463 1190.38 211.916 1188.9 214.047C1187.42 216.178 1188.4 220.23 1191.07 223.067C1193.74 225.904 1197.11 226.455 1198.58 224.324C1200.06 222.193 1199.08 218.145 1196.41 215.304Z" fill="#C2D0E1" fill-opacity="0.3"/>
<path d="M1762.06 103.031C1759.38 100.19 1756.02 99.6429 1754.55 101.774C1753.07 103.905 1754.05 107.957 1756.72 110.794C1759.39 113.631 1762.75 114.182 1764.23 112.051C1765.71 109.92 1764.73 105.872 1762.06 103.031Z" fill="#C2D0E1" fill-opacity="0.3"/>
<path d="M1204.33 203.615C1200.64 204.066 1197.48 202.03 1197.22 199.064C1196.97 196.098 1199.81 193.341 1203.49 192.893C1207.16 192.445 1210.34 194.478 1210.6 197.444C1210.85 200.41 1208.03 203.163 1204.33 203.615Z" fill="#C2D0E1" fill-opacity="0.3"/>
<path d="M1769.98 91.3416C1766.29 91.7933 1763.12 89.7566 1762.87 86.7906C1762.62 83.8246 1765.46 81.0681 1769.14 80.6201C1772.81 80.172 1775.99 82.2051 1776.24 85.1711C1776.5 88.1371 1773.67 90.89 1769.98 91.3416Z" fill="#C2D0E1" fill-opacity="0.3"/>
<path d="M1204.18 206.009C1200.59 204.848 1197.19 206.242 1196.58 209.117C1195.98 211.991 1198.4 215.264 1201.99 216.426C1205.59 217.588 1208.99 216.193 1209.59 213.319C1210.19 210.444 1207.77 207.176 1204.18 206.009Z" fill="#C2D0E1" fill-opacity="0.3"/>
<path d="M1769.83 93.7365C1766.24 92.5746 1762.83 93.969 1762.23 96.8436C1761.63 99.7182 1764.05 102.991 1767.64 104.153C1771.23 105.315 1774.64 103.921 1775.24 101.046C1775.84 98.1713 1773.42 94.9029 1769.83 93.7365Z" fill="#C2D0E1" fill-opacity="0.3"/>
<path d="M1359.19 152.845C1358.6 148.252 1355.03 147.737 1351.44 144.083C1346.17 138.707 1342.27 140.531 1341.82 144.408C1341.38 148.284 1345.11 150.934 1345.46 155.008L1345.47 155.079C1345.96 159.115 1342.89 162.867 1344.11 166.48C1345.34 170.093 1349.48 170.617 1353.48 163.762C1356.21 159.091 1359.57 157.47 1359.19 152.845Z" fill="#C2D0E1" fill-opacity="0.3"/>
<path d="M1924.84 40.572C1924.25 35.9794 1920.68 35.4646 1917.09 31.8103C1911.82 26.4338 1907.92 28.2583 1907.47 32.135C1907.02 36.0117 1910.75 38.6608 1911.11 42.7351L1911.12 42.8067C1911.61 46.8424 1908.54 50.5945 1909.76 54.2072C1910.98 57.8199 1915.12 58.3441 1919.13 51.4897C1921.86 46.8184 1925.22 45.1972 1924.84 40.572Z" fill="#C2D0E1" fill-opacity="0.3"/>
<path d="M1360.79 141.269C1358.22 144.269 1354.9 145.042 1353.34 142.993C1351.78 140.943 1352.59 136.852 1355.15 133.849C1357.71 130.846 1361.05 130.075 1362.6 132.119C1364.16 134.164 1363.35 138.274 1360.79 141.269Z" fill="#C2D0E1" fill-opacity="0.3"/>
<path d="M1926.44 28.9959C1923.87 31.9967 1920.55 32.7693 1918.99 30.72C1917.43 28.6707 1918.24 24.5791 1920.8 21.576C1923.36 18.5729 1926.7 17.8019 1928.25 19.8467C1929.81 21.8915 1929 26.0018 1926.44 28.9959Z" fill="#C2D0E1" fill-opacity="0.3"/>
<path d="M1363.1 163.53C1360.01 161.432 1356.62 161.736 1355.53 164.207C1354.44 166.679 1356.06 170.387 1359.15 172.485C1362.24 174.583 1365.62 174.279 1366.71 171.808C1367.8 169.336 1366.18 165.628 1363.1 163.53Z" fill="#C2D0E1" fill-opacity="0.3"/>
<path d="M1928.74 51.2573C1925.66 49.1593 1922.27 49.4627 1921.18 51.9342C1920.09 54.4057 1921.71 58.1138 1924.8 60.2118C1927.88 62.3097 1931.27 62.0063 1932.36 59.5349C1933.45 57.0634 1931.83 53.3553 1928.74 51.2573Z" fill="#C2D0E1" fill-opacity="0.3"/>
<path d="M1368.92 150.07C1365.38 151.455 1361.92 150.275 1361.21 147.442C1360.5 144.609 1362.78 141.187 1366.32 139.802C1369.86 138.417 1373.32 139.597 1374.03 142.434C1374.74 145.272 1372.46 148.688 1368.92 150.07Z" fill="#C2D0E1" fill-opacity="0.3"/>
<path d="M1369.17 152.453C1365.44 152.236 1362.36 154.462 1362.25 157.428C1362.13 160.394 1365.04 162.986 1368.75 163.206C1372.45 163.427 1375.55 161.198 1375.67 158.232C1375.79 155.266 1372.87 152.678 1369.17 152.453Z" fill="#C2D0E1" fill-opacity="0.3"/>
<path d="M1519.09 72.7143C1518.5 68.1218 1514.94 67.6069 1511.34 63.9527C1506.07 58.5762 1502.17 60.4006 1501.72 64.2773C1501.28 68.154 1505.01 70.7987 1505.37 74.8774L1505.38 74.949C1505.86 79.0071 1502.79 82.7368 1504.01 86.3495C1505.24 89.9621 1509.38 90.4865 1513.38 83.632C1516.11 78.9607 1519.48 77.3395 1519.09 72.7143Z" fill="#C2D0E1" fill-opacity="0.3"/>
<path d="M1520.69 61.1426C1518.12 64.1479 1514.8 64.9205 1513.24 62.8712C1511.69 60.8219 1512.5 56.7302 1515.06 53.7272C1517.61 50.7241 1520.95 49.9486 1522.51 51.9979C1524.07 54.0472 1523.24 58.1462 1520.69 61.1426Z" fill="#C2D0E1" fill-opacity="0.3"/>
<path d="M1523 83.3999C1519.91 81.3019 1516.53 81.6053 1515.44 84.0768C1514.35 86.5483 1515.97 90.2563 1519.05 92.3543C1522.14 94.4523 1525.53 94.1489 1526.62 91.673C1527.7 89.197 1526.09 85.4979 1523 83.3999Z" fill="#C2D0E1" fill-opacity="0.3"/>
<path d="M1528.83 69.9382C1525.29 71.3189 1521.83 70.1438 1521.12 67.3056C1520.41 64.4674 1522.69 61.0516 1526.23 59.6709C1529.77 58.2902 1533.23 59.4653 1533.94 62.3027C1534.65 65.1402 1532.37 68.5575 1528.83 69.9382Z" fill="#C2D0E1" fill-opacity="0.3"/>
<path d="M1529.07 72.3273C1525.36 72.1066 1522.27 74.3357 1522.15 77.3019C1522.03 80.2681 1524.95 82.8597 1528.65 83.0804C1532.36 83.3011 1535.46 81.0719 1535.57 78.1013C1535.69 75.1306 1532.78 72.5436 1529.07 72.3273Z" fill="#C2D0E1" fill-opacity="0.3"/>
</g>
<g clip-path="url(#clip1_1606_18411)">
<path d="M142.484 38.0369C141.358 42.3688 137.656 42.2359 133.557 45.14C127.568 49.4011 123.828 46.9727 123.83 43.149C123.833 39.3252 127.936 37.4249 128.783 33.5552L128.788 33.5203C128.788 33.5203 128.791 33.4941 128.793 33.481C129.77 29.6358 127.09 25.5141 128.762 22.244C130.434 18.974 134.699 19.1821 137.955 26.4939C140.2 31.4735 143.418 33.6373 142.484 38.0369Z" fill="#C2D0E1" fill-opacity="0.3"/>
<path d="M722.949 147.544C721.823 151.876 718.121 151.743 714.022 154.647C708.032 158.908 704.292 156.48 704.295 152.656C704.298 148.833 708.401 146.932 709.248 143.062L709.253 143.028C709.253 143.028 709.256 143.001 709.258 142.988C710.235 139.143 707.555 135.021 709.227 131.751C710.899 128.481 715.164 128.689 718.42 136.001C720.665 140.981 723.883 143.145 722.949 147.544Z" fill="#C2D0E1" fill-opacity="0.3"/>
<path d="M142.739 49.4817C140.496 46.1369 137.199 44.809 135.375 46.5142C133.551 48.2195 133.89 52.3142 136.13 55.6582C138.369 59.0023 141.671 60.3266 143.495 58.6213C145.319 56.916 144.983 52.8221 142.739 49.4817Z" fill="#C2D0E1" fill-opacity="0.3"/>
<path d="M723.204 158.989C720.961 155.644 717.664 154.316 715.84 156.022C714.015 157.727 714.355 161.821 716.594 165.166C718.834 168.51 722.136 169.834 723.96 168.129C725.784 166.423 725.448 162.329 723.204 158.989Z" fill="#C2D0E1" fill-opacity="0.3"/>
<path d="M147.721 28.3982C144.337 29.8884 140.934 29.0061 140.122 26.4298C139.311 23.8534 141.393 20.5579 144.776 19.072C148.159 17.5861 151.56 18.4634 152.374 21.0404C153.189 23.6175 151.101 26.9115 147.721 28.3982Z" fill="#C2D0E1" fill-opacity="0.3"/>
<path d="M728.188 137.905C724.804 139.396 721.4 138.513 720.589 135.937C719.778 133.361 721.859 130.065 725.243 128.579C728.626 127.093 732.026 127.971 732.841 130.548C733.656 133.125 731.567 136.419 728.188 137.905Z" fill="#C2D0E1" fill-opacity="0.3"/>
<path d="M152.038 42.4042C148.605 40.4549 144.963 40.9918 143.911 43.6046C142.859 46.2175 144.77 49.9157 148.199 51.8687C151.628 53.8216 155.277 53.2817 156.325 50.6682C157.374 48.0546 155.471 44.3578 152.038 42.4042Z" fill="#C2D0E1" fill-opacity="0.3"/>
<path d="M732.503 151.911C729.07 149.962 725.428 150.499 724.376 153.112C723.324 155.725 725.234 159.423 728.663 161.376C732.092 163.329 735.742 162.789 736.79 160.176C737.839 157.562 735.936 153.865 732.503 151.911Z" fill="#C2D0E1" fill-opacity="0.3"/>
<path d="M152.573 40.1411C148.782 39.7094 145.9 37.0227 146.136 34.1343C146.372 31.2459 149.633 29.2622 153.424 29.694C157.215 30.1258 160.096 32.8168 159.861 35.7008C159.625 38.5848 156.363 40.5729 152.573 40.1411Z" fill="#C2D0E1" fill-opacity="0.3"/>
<path d="M733.037 149.648C729.247 149.217 726.365 146.53 726.601 143.642C726.837 140.753 730.098 138.77 733.889 139.201C737.68 139.633 740.561 142.324 740.326 145.208C740.09 148.092 736.828 150.08 733.037 149.648Z" fill="#C2D0E1" fill-opacity="0.3"/>
<path d="M311.711 60.5814C310.254 64.7833 306.58 64.2482 302.287 66.7037C295.993 70.3025 292.45 67.4816 292.75 63.6783C293.05 59.875 297.282 58.4201 298.426 54.6559C298.426 54.6559 298.429 54.6296 298.431 54.6165C298.433 54.6034 298.431 54.6166 298.436 54.5816C299.697 50.8754 297.351 46.4679 299.267 43.3873C301.183 40.3067 305.416 40.9701 308.097 48.6073C309.94 53.7882 312.967 56.2965 311.711 60.5814Z" fill="#C2D0E1" fill-opacity="0.3"/>
<path d="M892.176 170.089C890.719 174.291 887.044 173.756 882.752 176.212C876.458 179.81 872.915 176.989 873.215 173.186C873.514 169.383 877.747 167.928 878.89 164.164C878.89 164.164 878.894 164.137 878.896 164.124C878.898 164.111 878.896 164.124 878.901 164.089C880.162 160.383 877.816 155.976 879.732 152.895C881.648 149.815 885.881 150.478 888.562 158.115C890.404 163.296 893.432 165.804 892.176 170.089Z" fill="#C2D0E1" fill-opacity="0.3"/>
<path d="M311.085 72.0025C309.107 68.4349 305.925 66.7571 303.977 68.2597C302.029 69.7624 302.051 73.8775 304.028 77.4495C306.005 81.0214 309.184 82.6941 311.132 81.1915C313.08 79.6889 313.058 75.5738 311.085 72.0025Z" fill="#C2D0E1" fill-opacity="0.3"/>
<path d="M891.548 181.51C889.57 177.942 886.388 176.265 884.44 177.767C882.492 179.27 882.514 183.385 884.491 186.957C886.468 190.529 889.647 192.202 891.595 190.699C893.543 189.196 893.521 185.081 891.548 181.51Z" fill="#C2D0E1" fill-opacity="0.3"/>
<path d="M317.661 51.544C314.178 52.6751 310.852 51.4179 310.248 48.7688C309.644 46.1198 311.963 43.0573 315.448 41.94C318.933 40.8226 322.257 42.0661 322.865 44.7159C323.472 47.3657 321.146 50.4266 317.661 51.544Z" fill="#C2D0E1" fill-opacity="0.3"/>
<path d="M898.126 161.051C894.643 162.182 891.317 160.925 890.712 158.276C890.108 155.627 892.427 152.565 895.912 151.447C899.397 150.33 902.722 151.573 903.329 154.223C903.937 156.873 901.611 159.934 898.126 161.051Z" fill="#C2D0E1" fill-opacity="0.3"/>
<path d="M320.887 65.957C317.62 63.6453 313.948 63.7913 312.686 66.2748C311.424 68.7583 313.054 72.654 316.321 74.9614C319.588 77.2688 323.259 77.1315 324.522 74.6437C325.784 72.1558 324.153 68.2688 320.887 65.957Z" fill="#C2D0E1" fill-opacity="0.3"/>
<path d="M901.354 175.464C898.087 173.152 894.415 173.298 893.153 175.782C891.891 178.265 893.521 182.161 896.788 184.468C900.055 186.776 903.726 186.639 904.988 184.151C906.251 181.663 904.62 177.776 901.354 175.464Z" fill="#C2D0E1" fill-opacity="0.3"/>
<path d="M321.595 63.7622C317.852 62.923 315.189 59.9375 315.643 57.0904C316.097 54.2434 319.504 52.6097 323.244 53.4439C326.984 54.278 329.651 57.2686 329.192 60.1193C328.733 62.9701 325.335 64.5964 321.595 63.7622Z" fill="#C2D0E1" fill-opacity="0.3"/>
<path d="M902.06 173.27C898.317 172.43 895.653 169.445 896.108 166.598C896.562 163.751 899.969 162.117 903.709 162.951C907.449 163.785 910.115 166.776 909.657 169.627C909.198 172.477 905.8 174.104 902.06 173.27Z" fill="#C2D0E1" fill-opacity="0.3"/>
<path d="M479.909 133.095C477.686 136.794 474.206 135.301 469.558 136.552C462.736 138.394 459.822 134.707 460.844 131.063C461.865 127.419 466.261 127.163 468.092 123.785L468.097 123.75L468.101 123.719C470.062 120.446 468.597 115.524 471.066 113.037C473.535 110.549 477.519 112.325 478.674 120.475C479.48 126.028 481.961 129.261 479.909 133.095Z" fill="#C2D0E1" fill-opacity="0.3"/>
<path d="M477.113 144.056C475.87 140.055 473.089 137.575 470.905 138.518C468.722 139.461 467.958 143.477 469.197 147.482C470.436 151.487 473.222 153.963 475.406 153.016C477.59 152.068 478.357 148.062 477.113 144.056Z" fill="#C2D0E1" fill-opacity="0.3"/>
<path d="M487.432 125.878C483.823 126.04 480.826 123.946 480.736 121.197C480.646 118.448 483.499 116.096 487.108 115.934C490.718 115.771 493.714 117.866 493.801 120.61C493.888 123.353 491.037 125.724 487.432 125.878Z" fill="#C2D0E1" fill-opacity="0.3"/>
<path d="M487.819 140.787C485.075 137.67 481.473 136.831 479.771 138.917C478.07 141.004 478.916 145.226 481.652 148.346C484.388 151.467 487.999 152.303 489.7 150.216C491.401 148.129 490.565 143.896 487.819 140.787Z" fill="#C2D0E1" fill-opacity="0.3"/>
<path d="M488.928 138.825C485.442 137.014 483.419 133.393 484.408 130.741C485.397 128.089 489.032 127.408 492.507 129.217C495.982 131.027 498.017 134.646 497.031 137.298C496.046 139.95 492.415 140.637 488.928 138.825Z" fill="#C2D0E1" fill-opacity="0.3"/>
<path d="M59.103 6.13664C60.5871 10.3228 57.6752 13.031 56.1206 18.3429C53.834 26.1448 49.644 27.1196 47.5738 24.1792C45.5036 21.2389 47.6206 16.6739 46.1691 13.0582L46.1733 13.0276L46.1774 12.9971C44.8444 9.31872 40.5481 8.16867 40.0518 4.38916C39.5555 0.609655 42.9512 -2.45022 49.4148 0.700259C53.7929 2.84201 57.4342 2.05433 59.103 6.13664Z" fill="#C2D0E1" fill-opacity="0.3"/>
<path d="M639.57 115.644C641.054 119.83 638.142 122.538 636.587 127.85C634.301 135.652 630.111 136.627 628.041 133.687C625.97 130.746 628.087 126.181 626.636 122.566L626.64 122.535L626.644 122.504C625.311 118.826 621.015 117.676 620.519 113.896C620.022 110.117 623.418 107.057 629.882 110.208C634.26 112.349 637.901 111.562 639.57 115.644Z" fill="#C2D0E1" fill-opacity="0.3"/>
<path d="M65.5065 14.7346C61.972 13.8678 58.7228 15.3433 58.2332 18.0314C57.7436 20.7195 60.2382 23.6059 63.7751 24.4553C67.312 25.3047 70.5619 23.8517 71.0479 21.1629C71.5338 18.4741 69.0405 15.6059 65.5065 14.7346Z" fill="#C2D0E1" fill-opacity="0.3"/>
<path d="M645.973 124.242C642.439 123.375 639.19 124.851 638.7 127.539C638.21 130.227 640.705 133.113 644.242 133.963C647.779 134.812 651.029 133.359 651.515 130.67C652.001 127.982 649.507 125.113 645.973 124.242Z" fill="#C2D0E1" fill-opacity="0.3"/>
<path d="M57.8902 -5.22131C56.1003 -1.53024 53.0124 0.378842 50.9901 -0.985088C48.9679 -2.34902 48.777 -6.4513 50.5687 -10.1555C52.3603 -13.8596 55.4466 -15.7556 57.4688 -14.3917C59.491 -13.0277 59.6776 -8.9218 57.8902 -5.22131Z" fill="#C2D0E1" fill-opacity="0.3"/>
<path d="M638.355 104.286C636.565 107.977 633.477 109.886 631.455 108.522C629.433 107.159 629.242 103.056 631.034 99.3521C632.825 95.648 635.911 93.752 637.934 95.1159C639.956 96.4798 640.142 100.586 638.355 104.286Z" fill="#C2D0E1" fill-opacity="0.3"/>
<path d="M68.8082 2.27005C65.1143 3.36126 62.6088 6.54057 63.21 9.35031C63.8113 12.1601 67.2902 13.5493 70.9852 12.4493C74.6803 11.3494 77.1803 8.18246 76.5797 5.36835C75.979 2.55425 72.4983 1.17814 68.8082 2.27005Z" fill="#C2D0E1" fill-opacity="0.3"/>
<path d="M649.271 111.777C645.577 112.869 643.072 116.048 643.673 118.858C644.274 121.667 647.753 123.057 651.448 121.957C655.143 120.857 657.643 117.69 657.043 114.876C656.442 112.062 652.961 110.685 649.271 111.777Z" fill="#C2D0E1" fill-opacity="0.3"/>
<path d="M67.9835 0.121746C64.8405 2.66076 61.1764 2.77692 59.7862 0.359514C58.396 -2.05789 59.8255 -6.02773 62.9686 -8.56674C66.1117 -11.1058 69.7757 -11.2219 71.1659 -8.80451C72.5561 -6.38711 71.1297 -2.4122 67.9835 0.121746Z" fill="#C2D0E1" fill-opacity="0.3"/>
<path d="M648.45 109.63C645.307 112.169 641.643 112.285 640.253 109.867C638.863 107.45 640.292 103.48 643.435 100.941C646.578 98.4021 650.243 98.2859 651.633 100.703C653.023 103.121 651.596 107.096 648.45 109.63Z" fill="#C2D0E1" fill-opacity="0.3"/>
<path d="M230.183 15.8363C230.386 20.3529 226.868 21.7416 223.881 26.1282C219.493 32.5601 215.269 31.7999 214.167 28.2057C213.066 24.6115 216.358 21.1649 216.041 17.1864C216.044 17.1752 216.045 17.1634 216.045 17.1515L216.05 17.1165C215.833 13.1213 212.136 10.3248 212.751 6.57232C213.366 2.81982 217.437 1.28977 222.624 6.83588C226.131 10.5904 229.78 11.3132 230.183 15.8363Z" fill="#C2D0E1" fill-opacity="0.3"/>
<path d="M810.648 125.344C810.851 129.86 807.333 131.249 804.345 135.635C799.958 142.067 795.734 141.307 794.632 137.713C793.53 134.119 796.823 130.672 796.505 126.694C796.509 126.682 796.51 126.671 796.51 126.659L796.515 126.624C796.298 122.629 792.6 119.832 793.215 116.08C793.83 112.327 797.902 110.797 803.089 116.343C806.596 120.098 810.245 120.821 810.648 125.344Z" fill="#C2D0E1" fill-opacity="0.3"/>
<path d="M233.749 26.4706C230.672 24.2397 227.19 24.332 225.974 26.6719C224.758 29.0119 226.264 32.7232 229.341 34.9542C232.417 37.1851 235.904 37.0935 237.12 34.7535C238.336 32.4136 236.829 28.7023 233.749 26.4706Z" fill="#C2D0E1" fill-opacity="0.3"/>
<path d="M814.214 135.978C811.137 133.747 807.655 133.84 806.438 136.18C805.222 138.519 806.729 142.231 809.806 144.462C812.882 146.693 816.369 146.601 817.585 144.261C818.801 141.921 817.294 138.21 814.214 135.978Z" fill="#C2D0E1" fill-opacity="0.3"/>
<path d="M232.297 4.6517C229.551 7.4227 226.103 7.95605 224.587 5.87756C223.072 3.79908 224.074 -0.153163 226.816 -2.92049C229.557 -5.68782 233.009 -6.22483 234.525 -4.14635C236.041 -2.06787 235.039 1.88 232.297 4.6517Z" fill="#C2D0E1" fill-opacity="0.3"/>
<path d="M812.759 114.159C810.014 116.93 806.566 117.463 805.05 115.385C803.534 113.306 804.537 109.354 807.278 106.587C810.02 103.819 813.472 103.282 814.988 105.361C816.504 107.439 815.502 111.387 812.759 114.159Z" fill="#C2D0E1" fill-opacity="0.3"/>
<path d="M240.424 16.0526C236.634 15.612 233.388 17.5986 233.128 20.4915C232.869 23.3844 235.785 26.073 239.556 26.51C243.327 26.947 246.592 24.964 246.851 22.0711C247.111 19.1782 244.213 16.4931 240.424 16.0526Z" fill="#C2D0E1" fill-opacity="0.3"/>
<path d="M820.891 125.56C817.101 125.12 813.855 127.106 813.595 129.999C813.336 132.892 816.251 135.581 820.023 136.018C823.794 136.455 827.058 134.472 827.318 131.579C827.578 128.686 824.68 126.001 820.891 125.56Z" fill="#C2D0E1" fill-opacity="0.3"/>
<path d="M240.265 13.7167C236.581 14.85 233.09 13.49 232.473 10.6862C231.856 7.88234 234.34 4.69012 238.025 3.55681C241.709 2.42351 245.199 3.78354 245.817 6.58735C246.434 9.39117 243.95 12.579 240.265 13.7167Z" fill="#C2D0E1" fill-opacity="0.3"/>
<path d="M820.732 123.224C817.047 124.357 813.557 122.997 812.94 120.193C812.322 117.39 814.807 114.197 818.491 113.064C822.176 111.931 825.666 113.291 826.284 116.095C826.901 118.898 824.417 122.086 820.732 123.224Z" fill="#C2D0E1" fill-opacity="0.3"/>
<path d="M399.338 65.5718C398.731 70.0512 395.071 70.5534 391.384 74.1176C385.974 79.3617 381.971 77.5822 381.513 73.801C381.055 70.0198 384.883 67.4359 385.251 63.462L385.261 63.3921C385.756 59.4558 382.608 55.7962 383.863 52.2725C385.119 48.7488 389.367 48.2374 393.478 54.923C396.277 59.4793 399.73 61.0605 399.338 65.5718Z" fill="#C2D0E1" fill-opacity="0.3"/>
<path d="M979.805 175.079C979.198 179.559 975.538 180.061 971.85 183.625C966.441 188.869 962.438 187.09 961.98 183.309C961.522 179.527 965.35 176.943 965.718 172.97L965.727 172.9C966.223 168.963 963.075 165.304 964.33 161.78C965.585 158.256 969.834 157.745 973.945 164.431C976.744 168.987 980.197 170.568 979.805 175.079Z" fill="#C2D0E1" fill-opacity="0.3"/>
<path d="M400.978 76.863C398.341 73.9362 394.932 73.1826 393.333 75.1814C391.735 77.1802 392.567 81.171 395.192 84.1002C397.818 87.0293 401.243 87.7814 402.84 85.7869C404.438 83.7924 403.605 79.7834 400.978 76.863Z" fill="#C2D0E1" fill-opacity="0.3"/>
<path d="M981.443 186.37C978.806 183.444 975.397 182.69 973.798 184.689C972.2 186.688 973.032 190.678 975.657 193.607C978.282 196.537 981.707 197.289 983.305 195.294C984.903 193.3 984.07 189.291 981.443 186.37Z" fill="#C2D0E1" fill-opacity="0.3"/>
<path d="M403.345 55.1496C400.178 57.196 396.702 56.9 395.584 54.4894C394.466 52.0788 396.129 48.4621 399.296 46.4158C402.463 44.3694 405.939 44.6654 407.057 47.076C408.175 49.4866 406.512 53.1033 403.345 55.1496Z" fill="#C2D0E1" fill-opacity="0.3"/>
<path d="M983.812 164.657C980.645 166.704 977.169 166.408 976.051 163.997C974.933 161.587 976.595 157.97 979.763 155.924C982.93 153.877 986.405 154.173 987.523 156.584C988.642 158.994 986.979 162.611 983.812 164.657Z" fill="#C2D0E1" fill-opacity="0.3"/>
<path d="M409.325 68.2786C405.693 66.9276 402.146 68.0781 401.415 70.8413C400.684 73.6045 403.03 76.942 406.662 78.293C410.294 79.6441 413.841 78.4935 414.572 75.726C415.304 72.9584 412.961 69.626 409.325 68.2786Z" fill="#C2D0E1" fill-opacity="0.3"/>
<path d="M989.788 177.786C986.156 176.435 982.609 177.586 981.878 180.349C981.147 183.112 983.493 186.45 987.125 187.801C990.757 189.152 994.303 188.001 995.035 185.234C995.767 182.466 993.424 179.134 989.788 177.786Z" fill="#C2D0E1" fill-opacity="0.3"/>
<path d="M409.578 65.9536C405.757 66.1654 402.597 63.9947 402.477 61.1016C402.357 58.2084 405.347 55.6807 409.15 55.4654C412.952 55.2501 416.132 57.4244 416.251 60.3175C416.371 63.2106 413.382 65.734 409.578 65.9536Z" fill="#C2D0E1" fill-opacity="0.3"/>
<path d="M990.043 175.461C986.222 175.673 983.062 173.502 982.942 170.609C982.822 167.716 985.812 165.188 989.615 164.973C993.417 164.757 996.596 166.932 996.716 169.825C996.836 172.718 993.846 175.241 990.043 175.461Z" fill="#C2D0E1" fill-opacity="0.3"/>
<path d="M563.432 143.729C562.825 148.208 559.165 148.71 555.477 152.275C550.067 157.519 546.065 155.739 545.607 151.958C545.149 148.177 548.976 145.597 549.345 141.619L549.354 141.549C549.853 137.591 546.702 133.953 547.957 130.429C549.212 126.906 553.461 126.394 557.572 133.08C560.371 137.636 563.824 139.217 563.432 143.729Z" fill="#C2D0E1" fill-opacity="0.3"/>
<path d="M565.072 155.015C562.435 152.084 559.026 151.331 557.427 153.329C555.829 155.328 556.661 159.319 559.286 162.248C561.912 165.177 565.336 165.934 566.934 163.935C568.533 161.936 567.687 157.938 565.072 155.015Z" fill="#C2D0E1" fill-opacity="0.3"/>
<path d="M567.439 133.306C564.272 135.353 560.796 135.057 559.678 132.646C558.56 130.236 560.222 126.619 563.39 124.573C566.557 122.526 570.032 122.822 571.15 125.237C572.267 127.652 570.606 131.26 567.439 133.306Z" fill="#C2D0E1" fill-opacity="0.3"/>
<path d="M573.418 146.436C569.785 145.089 566.24 146.236 565.511 149.004C564.783 151.772 567.123 155.104 570.755 156.451C574.388 157.797 577.934 156.651 578.666 153.884C579.397 151.116 577.05 147.783 573.418 146.436Z" fill="#C2D0E1" fill-opacity="0.3"/>
<path d="M573.67 144.106C569.868 144.322 566.689 142.147 566.569 139.254C566.449 136.361 569.439 133.833 573.242 133.618C577.044 133.403 580.223 135.577 580.342 138.474C580.462 141.372 577.472 143.895 573.67 144.106Z" fill="#C2D0E1" fill-opacity="0.3"/>
</g>
<defs>
<clipPath id="clip0_1606_18411">
<rect width="1084.03" height="204.796" fill="white" transform="translate(954.232 15.2036)"/>
</clipPath>
<clipPath id="clip1_1606_18411">
<rect width="1112.43" height="199.752" fill="white" transform="matrix(1 0 0 -1 -16.2246 199.823)"/>
</clipPath>
</defs>
</svg>
