<svg aria-hidden="true" style="width: 0; height: 0; position: absolute; overflow: hidden" version="1.1" xmlns="http://www.w3.org/2000/svg" xmlns:xlink="http://www.w3.org/1999/xlink">
<defs>
<symbol id="icon-arrow-small" viewBox="0 0 19 32">
<path fill="none" stroke-linejoin="miter" stroke-linecap="round" stroke-miterlimit="4" stroke-width="3.2" d="M2.003 1.6l12.8 14.4-12.8 14.4"></path>
</symbol>
<symbol id="icon-tiktok" viewBox="0 0 33 32">
<path d="M16.382 0.176c-8.73 0-15.806 7.077-15.806 15.806s7.077 15.806 15.806 15.806c8.73 0 15.806-7.077 15.806-15.806s-7.077-15.806-15.806-15.806zM25.88 11.864v2.374c-1.119 0-2.207-0.219-3.233-0.652-0.66-0.278-1.274-0.637-1.836-1.071l0.017 7.306c-0.007 1.645-0.658 3.191-1.836 4.356-0.959 0.948-2.174 1.55-3.49 1.746-0.309 0.046-0.624 0.069-0.943 0.069-1.41 0-2.748-0.457-3.842-1.299-0.206-0.159-0.403-0.331-0.59-0.516-1.277-1.262-1.935-2.972-1.824-4.771 0.085-1.37 0.633-2.676 1.547-3.699 1.209-1.355 2.901-2.107 4.71-2.107 0.318 0 0.633 0.024 0.943 0.070v3.319c-0.293-0.097-0.607-0.15-0.933-0.15-1.653 0-2.99 1.348-2.965 3.002 0.016 1.058 0.594 1.983 1.446 2.493 0.401 0.24 0.862 0.388 1.353 0.415 0.385 0.021 0.756-0.033 1.098-0.146 1.181-0.39 2.033-1.499 2.033-2.807l0.004-4.893v-8.933h3.269c0.003 0.324 0.036 0.64 0.097 0.946 0.247 1.24 0.946 2.315 1.918 3.048 0.848 0.64 1.904 1.019 3.048 1.019 0.001 0 0.010 0 0.009-0.001l0 0.881z"></path>
</symbol>
<symbol id="icon-arrow-right" viewBox="0 0 84 32">
<path d="M2 14c-1.105 0-2 0.895-2 2s0.895 2 2 2v-4zM83.414 17.414c0.781-0.781 0.781-2.047 0-2.828l-12.728-12.728c-0.781-0.781-2.047-0.781-2.828 0s-0.781 2.047 0 2.828l11.314 11.314-11.314 11.314c-0.781 0.781-0.781 2.047 0 2.828s2.047 0.781 2.828 0l12.728-12.728zM2 18h80v-4h-80v4z"></path>
</symbol>
<symbol id="icon-facebook" viewBox="0 0 32 32">
<path d="M1.23 16.121c0 7.342 5.333 13.448 12.308 14.687v-10.667h-3.693v-4.102h3.693v-3.282c0-3.693 2.379-5.743 5.744-5.743 1.066 0 2.215 0.164 3.281 0.328v3.774h-1.886c-1.806 0-2.216 0.902-2.216 2.052v2.871h3.939l-0.656 4.102h-3.283v10.667c6.975-1.238 12.308-7.343 12.308-14.687 0-8.168-6.646-14.852-14.769-14.852s-14.77 6.683-14.77 14.852z"></path>
</symbol>
<symbol id="icon-instagram" viewBox="0 0 32 32">
<path d="M15.996 10.957c-2.798 0-5.082 2.283-5.082 5.082s2.283 5.082 5.082 5.082c2.798 0 5.081-2.284 5.081-5.082s-2.283-5.082-5.081-5.082zM31.236 16.038c0-2.104 0.019-4.19-0.099-6.29-0.118-2.44-0.674-4.605-2.458-6.389-1.788-1.788-3.95-2.341-6.389-2.459-2.104-0.118-4.19-0.099-6.29-0.099-2.104 0-4.189-0.018-6.29 0.099-2.44 0.118-4.605 0.675-6.389 2.459-1.788 1.788-2.341 3.949-2.459 6.389-0.118 2.104-0.098 4.19-0.098 6.29s-0.019 4.19 0.098 6.29c0.118 2.44 0.675 4.605 2.459 6.389 1.788 1.788 3.949 2.341 6.389 2.459 2.104 0.118 4.19 0.099 6.29 0.099 2.104 0 4.19 0.019 6.29-0.099 2.44-0.118 4.605-0.674 6.389-2.459 1.788-1.787 2.341-3.949 2.458-6.389 0.122-2.1 0.099-4.186 0.099-6.29zM15.996 23.857c-0.003 0-0.007 0-0.010 0-4.312 0-7.808-3.496-7.808-7.808 0-0.004 0-0.007 0-0.011v0.001c0-0.003 0-0.007 0-0.011 0-4.312 3.496-7.808 7.808-7.808 0.004 0 0.007 0 0.011 0h-0.001c0.003 0 0.007 0 0.010 0 4.312 0 7.808 3.496 7.808 7.808 0 0.004 0 0.008 0 0.012v-0.001c0 0.003 0 0.007 0 0.010 0 4.312-3.496 7.808-7.808 7.808-0.004 0-0.007 0-0.011 0h0.001zM24.134 9.726c-0 0-0.001 0-0.002 0-1.007 0-1.824-0.817-1.824-1.824 0-0.001 0-0.002 0-0.003v0c0-0 0-0.001 0-0.002 0-1.007 0.817-1.824 1.824-1.824 0.001 0 0.001 0 0.002 0h-0c0.001 0 0.003 0 0.004 0 1.007 0 1.824 0.817 1.824 1.824 0 0.253-0.051 0.494-0.145 0.713l0.005-0.012c-0.281 0.667-0.93 1.127-1.686 1.127-0.001 0-0.002 0-0.002 0h0z"></path>
</symbol>
<symbol id="icon-logo" viewBox="0 0 43 32">
<path d="M15.123 17.873c0.527-0.634 1.093-1.219 1.831-1.616 0.047-0.026 0.19-0.038 0.090 0.092-0.17 0.158-0.333 0.317-0.503 0.475 0.32 0.358 0.963 0.294 1.396-0.138 0.326-0.325 0.201-0.9-0.302-1.378-0.419 0.163-0.853 0.412-1.257-0.009-0.31-0.324-0.279-0.608 0.091-1.237-1.565-0.876-2.86-2.034-3.717-3.729-0.237 0.361-0.442 0.67-0.636 0.983s-0.363 0.625-0.551 0.934c-0.138 0.227-0.328 0.329-0.61 0.279-0.546-0.096-1.099-0.158-1.646-0.255-0.666-0.117-0.902 0.079-0.753 0.755 0.332 1.506 1.179 2.616 2.633 3.225 0.131 0.055 0.253 0.129 0.38 0.195-0.015 0.049-0.030 0.1-0.044 0.151-0.285-0.042-0.581-0.044-0.85-0.134-0.564-0.191-0.997-0.578-1.365-1.038-0.609-0.754-1.056-1.584-1.187-2.556-0.087-0.662 0.26-1.064 0.929-0.998 0.589 0.062 1.172 0.163 1.748 0.304 0.34 0.080 0.5-0.036 0.666-0.31 0.34-0.565 0.725-1.102 1.067-1.667 0.062-0.102 0.024-0.298-0.027-0.427-0.383-0.961-0.605-1.952-0.593-2.991 0.024-2.242 1.421-3.912 3.622-4.387 1.511-0.328 3.038-0.392 4.535-0.093 2.1 0.419 4.122 0.254 6.149-0.366 1.199-0.367 2.42-0.667 3.697-0.656 1.879 0.018 3.233 0.916 4.127 2.49 1.065 1.874 0.718 4.048-0.68 5.695-0.073 0.090-0.225 0.268-0.296 0.289-0.059-0.047-0.059-0.047-0.043-0.113 0.047-0.119 0.1-0.236 0.159-0.35 0.58-1.006 1.044-1.987 1.031-3.176-0.023-2.077-1.632-3.964-3.694-4.302-1.006-0.165-1.972 0.061-2.935 0.279-1.106 0.251-2.203 0.543-3.305 0.813-1.2 0.295-2.39 0.164-3.597-0.014-1.012-0.169-2.184-0.27-3.378-0.279l-0.009-0c-0.223 0-0.678 0.043-0.814 0.056 0.285 0.723 0.314 1.458 0.224 2.145-0.145 1.126-0.7 2.068-1.602 2.783-0.742 0.589-1.615 0.867-2.625 0.452 0.122 0.81 0.48 1.596 0.845 2.258 1.113 2.019 2.871 3.253 5.013 3.977 1.14 0.399 2.454 0.63 3.822 0.63 0.39 0 0.777-0.019 1.157-0.056l-0.048 0.004c0.081-0.007 0.168 0.050 0.251 0.078-0.047 0.085-0.078 0.227-0.145 0.245-0.333 0.094-0.674 0.217-1.016 0.217-1.446 0.016-2.871-0.151-4.247-0.623-0.066-0.023-0.135-0.037-0.212-0.057-0.285 0.533 0.337 0.511 0.412 0.801 0.131-0.114 0.198-0.308 0.326-0.285 0.145 0.025 0.196 0.254 0.212 0.39 0.081 0.69-0.287 1.18-0.808 1.554-0.508 0.366-1.072 0.336-1.59-0.017l-0.176-0.119c-0.349 0.32-0.599 0.526-0.943 0.842-0.112 0.081-0.303 0.136-0.207-0.015z"></path>
<path d="M33.266 6.019c-0.034 1.251-0.505 2.221-1.354 2.956-0.705 0.61-1.51 1.108-2.28 1.643-0.093 0.064-0.311 0.105-0.349 0.058-0.060-0.087-0.097-0.194-0.097-0.311 0-0.028 0.002-0.055 0.006-0.082l-0 0.003c0.226-1.618-0.206-2.97-1.56-3.976-0.445-0.33-0.601-0.754-0.352-1.242 0.637-1.249 1.605-2.126 3.038-2.363 0.617-0.101 1.171 0.145 1.634 0.546 0.872 0.753 1.25 1.742 1.314 2.767zM18.384 17.879c0.087-0.105 0.198-0.189 0.324-0.244 1.306-0.688 2.462-1.229 3.732-1.748 1.718-0.703 3.366-1.506 4.862-2.612 0.46-0.34 0.871-0.499 1.385-0.767 0.025-0.013 0.382-0.166 0.353-0.105-0.036 0.077-0.038 0.121-0.017 0.151 0.041 0.058 0.162 0.097 0.608 0.083 0.073 0 0.213-0.068 0.385-0.175 0.064-0.018 0.012 0.055-0.010 0.092-0.105 0.166-0.332 0.348-0.119 0.458 0.062 0.033 0.333 0.049 0.562 0.048 0.010 0-0.162 0.126-0.165 0.128-0.38 0.256-0.282 0.451-0.413 0.768-0.508 1.224-1.379 2.164-2.436 2.942-1.26 0.929-2.715 1.696-4.279 2.227l-0.113 0.033c-0.182 0.062-0.557 0.073-0.576 0.018-0.107-0.314 0.224-0.345 0.402-0.437 0.964-0.499 1.952-0.956 2.91-1.465 1.373-0.729 2.576-1.658 3.36-3.036 0.084-0.132 0.149-0.275 0.194-0.425 0.037-0.154 0.066-0.365 0.017-0.47-0.005-0.024-0.024-0.042-0.048-0.046l-0-0c-0.043-0.012-0.125 0.063-0.137 0.051s0.034-0.173 0.016-0.191c-0.223-0.217-0.358-0.212-0.614-0.106-0.332 0.138-0.674 0.282-0.957 0.495-1.402 1.058-2.98 1.771-4.591 2.439-1.459 0.605-2.895 1.265-4.343 1.899-0.078 0.034-0.276 0.121-0.301 0.099s-0.013-0.077 0.011-0.105zM11.75 15.921c0.694 0.489 0.557 1.725-0.32 2.793 0.609 0.266 1.317 0.43 2.061 0.453l0.009 0c1.268 0.051 2.467-0.254 3.604-0.795 0.102-0.049 0.339-0.167 0.354-0.049s-0.091 0.235-0.176 0.303c-0.961 0.772-2.096 1.012-3.292 1.001-1.109-0.010-2.158-0.257-3.102-0.694l0.047 0.019c-0.090-0.040-0.232-0.138-0.244-0.218s0.108-0.193 0.188-0.235c0.883-0.466 1.118-1.262 0.937-2.206-0.018-0.098-0.049-0.239-0.067-0.373zM26.476 8.18c-0.081 0.075-0.168 0.143-0.26 0.202-0.851 0.457-1.946 0.118-2.427-0.771-0.626-1.156-0.308-2.968 0.936-3.704 0.126-0.073 0.264-0.129 0.397-0.194l0.063 0.098c-0.081 0.067-0.159 0.138-0.243 0.202-0.943 0.719-1.268 2.102-0.736 3.154 0.308 0.609 0.815 0.893 1.487 0.906 0.247 0.005 0.493 0 0.739 0l0.045 0.106zM34.598 16.042c-1.030-0.775-1.741-4.605-1.204-5.824 0.12 1.008 0.174 2.012 0.375 2.984s0.546 1.895 0.829 2.84zM18.322 7.82c0.040 0.044 0.062 0.145 0.073 0.399 0.051 1.121-0.088 1.944-0.859 2.763-0.532 0.565-1.412 0.595-2.023 0.119-0.043-0.033-0.196-0.168-0.222-0.267 0.090-0.017 0.275 0.099 0.332 0.124 1.028 0.434 1.751 0.107 2.177-0.926 0.256-0.622 0.308-1.206 0.335-1.907 0.004-0.122 0-0.186 0-0.266-0.006-0.142 0.119-0.115 0.187-0.040zM14.665 13.392c0.472 0.289 0.708 0.727 0.738 1.283 0.046 0.858-0.563 1.538-1.344 1.502-0.127-0.004-0.246-0.032-0.355-0.079l0.006 0.002c-0.137-0.061-0.273-0.16-0.266-0.238s0.154-0.066 0.29-0.073c0.082-0.006 0.166-0.026 0.249-0.040 0.962-0.166 1.384-1.174 0.828-1.984-0.073-0.105-0.154-0.205-0.231-0.307-0.082-0.155 0.023-0.101 0.085-0.067zM9.396 12.925c0.798-0.155 1.754 0.349 2.245 1.198 0.207 0.361 0.367 0.742 0.088 1.254-0.107-0.188-0.195-0.289-0.224-0.4-0.271-1.056-0.933-1.705-2.005-1.932-0.035-0.012-0.064-0.031-0.090-0.054l0 0c-0.006-0.006-0.005-0.023-0.016-0.067z"></path>
<path d="M16.6 15.936c-0.886 0.825-1.959 1.175-2.87 1.836-0.002-0.482 2.090-1.826 2.87-1.836zM3.946 28.5c0 0.049-0.030 0.244-0.090 0.586-0.021 0.125-0.033 0.198-0.036 0.219v0.070c-0.014 0.083-0.024 0.183-0.028 0.285l-0 0.005v0.088c0 0.112-0.058 0.167-0.175 0.167s-0.204-0.073-0.204-0.222c0.008-0.157 0.028-0.304 0.060-0.447l-0.003 0.018c0.011-0.055 0.023-0.119 0.034-0.192 0-0.021 0.009-0.060 0.020-0.116 0.059-0.275 0.095-0.554 0.108-0.835 0-0.024 0-0.036-0.015-0.037-0.123-0.011-0.184-0.061-0.184-0.149-0-0.003-0-0.006-0-0.010 0-0.047 0.018-0.090 0.047-0.122l-0 0c0.032-0.033 0.076-0.053 0.126-0.054h0c0.002 0 0.003 0 0.005 0 0.062 0 0.12-0.015 0.172-0.041l-0.002 0.001c0.034-0.020 0.075-0.032 0.118-0.032s0.084 0.012 0.119 0.033l-0.001-0.001c0.078 0.022 0.159 0.030 0.239 0.024l0.3-0.009c0.199 0 0.299-0.010 0.316-0.015 0.020-0.006 0.039-0.015 0.058-0.024 0.036-0.016 0.077-0.025 0.121-0.026h0c0.004-0 0.008-0 0.012-0 0.021 0 0.042 0.003 0.061 0.008l-0.002-0c0.013 0.006 0.026 0.009 0.041 0.009l0.149-0.009c0.004-0 0.008-0.001 0.013-0.001 0.034 0 0.066 0.011 0.091 0.031l-0-0c0.030 0.023 0.050 0.059 0.050 0.099 0 0.004-0 0.008-0 0.011l0-0c0 0.001 0 0.003 0 0.004 0 0.052-0.022 0.099-0.057 0.132l-0 0c-0.034 0.035-0.081 0.058-0.132 0.062l-0.001 0c-0.014 0.002-0.026 0.010-0.035 0.020l-0 0c-0.029 0.069-0.051 0.148-0.062 0.232l-0.001 0.005c-0.035 0.181-0.066 0.406-0.084 0.635l-0.001 0.023c-0.024 0.237-0.039 0.514-0.041 0.794v0.003c0 0.001 0 0.001 0 0.002 0 0.052-0.022 0.099-0.058 0.132l-0 0c-0.024 0.027-0.055 0.047-0.091 0.055l-0.001 0c-0.149 0-0.215-0.121-0.215-0.361 0.028-0.54 0.082-1.038 0.16-1.527l-0.011 0.081v-0.058c0-0.003-0.009-0.014-0.025-0.017s-0.088 0-0.214 0h-0.265c-0.075-0.001-0.149 0.005-0.223 0.017-0.035 0.004-0.066 0.014-0.094 0.030l0.001-0.001c-0.020 0.033-0.033 0.073-0.037 0.115l-0 0.001c-0.015 0.089-0.026 0.195-0.031 0.304l-0 0.006zM6.018 29.744c-0.019 0.079-0.043 0.224-0.073 0.435s-0.046 0.352-0.052 0.425c-0.004 0.071-0.031 0.135-0.075 0.184l0-0c-0.027 0.040-0.069 0.068-0.118 0.076l-0.001 0c-0.050-0.002-0.095-0.020-0.13-0.049l0 0c-0.036-0.023-0.060-0.062-0.063-0.107l-0-0c0.002-0.092 0.014-0.183 0.036-0.273 0.147-0.588 0.227-1.191 0.239-1.798v-0.028c-0-0.011-0-0.025-0-0.038 0-0.073 0.005-0.144 0.014-0.215l-0.001 0.008c0.011-0.049 0.037-0.091 0.073-0.122l0-0c0.036-0.036 0.086-0.058 0.141-0.058 0.003 0 0.006 0 0.009 0h-0c0 0 0.001 0 0.001 0 0.048 0 0.090 0.025 0.114 0.062l0 0.001c0.029 0.046 0.045 0.102 0.045 0.161 0 0.007-0 0.013-0.001 0.020l0-0.001c-0.007 0.154-0.022 0.298-0.046 0.44l0.003-0.021c0.1-0.172 0.231-0.323 0.387-0.447 0.114-0.102 0.259-0.165 0.411-0.176 0.002-0 0.004-0 0.007-0 0.107 0 0.203 0.044 0.272 0.116l0 0c0.070 0.072 0.114 0.171 0.114 0.279 0 0.007-0 0.013-0 0.020l0-0.001c-0.004 0.335-0.143 0.638-0.365 0.855l-0 0c-0.244 0.256-0.486 0.384-0.724 0.384-0.009 0.001-0.019 0.002-0.030 0.002-0.086 0-0.159-0.056-0.185-0.133l-0-0.001zM6.868 28.552c-0.119 0-0.274 0.116-0.462 0.347s-0.285 0.413-0.285 0.544c0.001 0.038 0.020 0.070 0.049 0.091l0 0c0.032 0.025 0.072 0.041 0.116 0.041 0.001 0 0.002 0 0.002 0h-0c0.124 0 0.265-0.097 0.427-0.291 0.143-0.153 0.228-0.351 0.239-0.56 0-0.006 0.001-0.012 0.001-0.019 0-0.041-0.010-0.080-0.028-0.114l0.001 0.001c-0.012-0.022-0.034-0.037-0.059-0.040l-0-0zM8.703 29.306c-0.081 0.155-0.191 0.293-0.325 0.405-0.103 0.092-0.236 0.145-0.374 0.149-0.092-0.007-0.172-0.051-0.227-0.117l-0-0.001c-0.073-0.086-0.117-0.199-0.117-0.322 0-0.014 0.001-0.029 0.002-0.043l-0 0.002c0.010-0.177 0.040-0.352 0.088-0.523 0.043-0.142 0.067-0.288 0.075-0.436 0.029-0.072 0.098-0.123 0.179-0.123 0.002 0 0.004 0 0.006 0h-0c0.001 0 0.002-0 0.003-0 0.096 0 0.175 0.074 0.182 0.168l0 0.001c-0.007 0.102-0.032 0.204-0.073 0.298-0.031 0.084-0.062 0.191-0.087 0.3l-0.004 0.020c-0.022 0.076-0.040 0.167-0.049 0.26l-0.001 0.007c0 0.128 0.027 0.194 0.081 0.194 0.084 0 0.199-0.082 0.342-0.244 0.133-0.141 0.23-0.311 0.283-0.497 0.023-0.113 0.063-0.223 0.117-0.325 0.029-0.047 0.080-0.078 0.138-0.078 0.004 0 0.008 0 0.012 0l-0.001-0c0.102 0 0.15 0.057 0.15 0.169-0.004 0.034-0.013 0.068-0.026 0.1-0.059 0.188-0.088 0.383-0.085 0.58 0 0.253 0.042 0.404 0.129 0.447 0.024 0.011 0.041 0.034 0.042 0.061v0c0 0.034-0.026 0.069-0.075 0.099-0.039 0.028-0.088 0.046-0.14 0.048l-0.001 0c-0.078 0-0.136-0.055-0.178-0.163-0.042-0.119-0.066-0.257-0.066-0.4 0-0.012 0-0.025 0.001-0.037l-0 0.002zM9.957 29.747c0 0.001 0 0.001 0 0.002 0 0.067-0.044 0.123-0.105 0.142l-0.001 0c-0.013 0.004-0.028 0.006-0.043 0.006-0.007 0-0.014-0-0.021-0.001l0.001 0c-0.127 0-0.192-0.092-0.192-0.276-0.003-0.255 0.014-0.509 0.050-0.762 0.024-0.16 0.036-0.321 0.037-0.483-0-0.002-0-0.005-0-0.007 0-0.055 0.035-0.102 0.085-0.12l0.001-0c0.013-0.005 0.028-0.008 0.044-0.008 0.004 0 0.007 0 0.011 0l-0-0c0.149 0 0.218 0.090 0.218 0.265-0.014 0.148-0.041 0.294-0.078 0.438-0.024 0.098-0.040 0.198-0.046 0.299 0.279-0.611 0.528-0.915 0.748-0.914 0.002-0 0.004-0 0.007-0 0.087 0 0.164 0.042 0.211 0.107l0.001 0.001c0.072 0.148 0.102 0.313 0.085 0.477 0 0.227 0.013 0.338 0.036 0.338 0.077-0.099 0.139-0.21 0.183-0.328 0.073-0.174 0.174-0.336 0.299-0.478 0.066-0.069 0.158-0.113 0.26-0.116l0.001-0c0.004-0 0.008-0 0.013-0 0.097 0 0.181 0.056 0.222 0.138l0.001 0.001c0.062 0.149 0.097 0.308 0.102 0.469 0.008 0.134 0.028 0.267 0.060 0.397 0.015 0.076 0.062 0.14 0.126 0.177l0.001 0.001c0.043 0.016 0.073 0.057 0.073 0.104 0 0 0 0 0 0v0c-0.007 0.054-0.038 0.1-0.082 0.126l-0.001 0c-0.046 0.037-0.106 0.061-0.17 0.062h-0c-0.102-0.001-0.191-0.061-0.233-0.148l-0.001-0.002c-0.071-0.173-0.112-0.373-0.112-0.584 0-0.001 0-0.002 0-0.004v0c-0.005-0.103-0.017-0.2-0.036-0.294l0.002 0.012c-0.012-0.046-0.030-0.068-0.055-0.068s-0.052 0.034-0.093 0.102c-0.041 0.069-0.112 0.209-0.212 0.415-0.060 0.139-0.137 0.27-0.229 0.39-0.047 0.064-0.121 0.106-0.204 0.11l-0.001 0c-0.067-0.003-0.126-0.030-0.171-0.073l0 0c-0.057-0.048-0.087-0.224-0.093-0.528 0-0.271-0.023-0.407-0.052-0.407s-0.139 0.121-0.299 0.362c-0.123 0.188-0.239 0.403-0.334 0.629l-0.010 0.027zM13.672 29.416c-0.299 0.238-0.531 0.356-0.695 0.356-0.002 0-0.004 0-0.006 0-0.1 0-0.189-0.049-0.243-0.124l-0.001-0.001c-0.057-0.080-0.091-0.18-0.091-0.287 0-0.004 0-0.008 0-0.012v0.001c0.006-0.192 0.037-0.381 0.091-0.565 0.023-0.14 0.074-0.273 0.149-0.392 0.042-0.033 0.096-0.052 0.154-0.052 0.004 0 0.008 0 0.011 0l-0.001-0c0.044 0 0.083 0.023 0.105 0.058l0 0c0.025 0.037 0.041 0.082 0.041 0.131 0 0.002-0 0.004-0 0.005v-0c-0.029 0.084-0.064 0.166-0.105 0.246-0.077 0.145-0.121 0.306-0.129 0.471-0 0.002-0 0.005-0 0.007 0 0.051 0.012 0.1 0.033 0.144l-0.001-0.002c0.021 0.038 0.042 0.060 0.064 0.060 0.057-0.003 0.113-0.016 0.165-0.041 0.084-0.039 0.162-0.090 0.232-0.149 0.065-0.047 0.124-0.1 0.175-0.161 0.028-0.040 0.049-0.088 0.061-0.139l0.001-0.003c0.024-0.124 0.037-0.25 0.038-0.375 0.001-0.077 0.008-0.15 0.019-0.223l-0.001 0.009c0.008-0.033 0.026-0.060 0.050-0.080l0-0c0.029-0.022 0.066-0.036 0.105-0.036 0.003 0 0.006 0 0.009 0l-0-0c0.005-0.001 0.012-0.001 0.018-0.001 0.045 0 0.087 0.016 0.12 0.042l-0-0c0.027 0.044 0.043 0.097 0.043 0.154 0 0.013-0.001 0.027-0.003 0.040l0-0.002c0 0.137-0.025 0.429-0.075 0.875-0.019 0.358-0.116 0.689-0.274 0.983l0.006-0.012c-0.105 0.179-0.297 0.298-0.517 0.298-0.004 0-0.007-0-0.011-0h0.001c-0.007 0-0.016 0-0.025 0-0.184 0-0.354-0.056-0.496-0.152l0.003 0.002c-0.149-0.102-0.222-0.193-0.222-0.273-0-0.002-0-0.004-0-0.007 0-0.039 0.013-0.075 0.035-0.104l-0 0c0.021-0.025 0.053-0.040 0.087-0.040 0.017 0 0.034 0.004 0.049 0.011l-0.001-0c0.014 0.007 0.026 0.017 0.035 0.030 0.119 0.147 0.299 0.24 0.501 0.24 0.002 0 0.004 0 0.005-0h-0c0.25 0.001 0.413-0.309 0.489-0.93zM16.014 29.701c-0.015 0.094-0.095 0.165-0.192 0.165-0.007 0-0.014-0-0.021-0.001l0.001 0c-0.096 0-0.182-0.082-0.259-0.244-0.072-0.155-0.129-0.335-0.162-0.524l-0.002-0.013c-0.019-0.109-0.035-0.185-0.053-0.261l0.007 0.035c-0.006-0.026-0.011-0.058-0.014-0.090l-0-0.002c-0.001-0.029-0.005-0.056-0.013-0.082l0.001 0.002-0.050 0.108c-0.13 0.286-0.263 0.528-0.414 0.757l0.013-0.021-0.016 0.033c-0.007 0.011-0.014 0.021-0.023 0.030l0-0c-0.121 0.215-0.221 0.322-0.299 0.322-0.111 0-0.166-0.048-0.166-0.149 0.016-0.113 0.068-0.218 0.15-0.298 0.174-0.231 0.336-0.493 0.473-0.768l0.013-0.029 0.208-0.395c0.020-0.035 0.058-0.059 0.101-0.059 0.004 0 0.008 0 0.012 0.001l-0.001-0c0.042 0.002 0.080 0.012 0.115 0.029l-0.002-0.001c0.036 0.012 0.065 0.036 0.085 0.067l0 0.001c0.020 0.041 0.033 0.084 0.041 0.128 0.070 0.328 0.133 0.587 0.19 0.777 0.026 0.135 0.090 0.259 0.186 0.358 0.047 0.020 0.079 0.066 0.079 0.119v0l0.009 0.007zM17.712 29.102c-0.064 0.224-0.194 0.424-0.372 0.574-0.143 0.137-0.334 0.224-0.546 0.234l-0.002 0c-0.003 0-0.006 0-0.009 0-0.138 0-0.262-0.061-0.347-0.157l-0-0.001c-0.088-0.1-0.141-0.232-0.141-0.376 0-0.005 0-0.009 0-0.014v0.001c0.006-0.282 0.102-0.54 0.26-0.749l-0.002 0.003c0.13-0.215 0.359-0.358 0.623-0.364l0.001-0c0.005-0 0.010-0 0.016-0 0.157 0 0.297 0.072 0.389 0.185l0.001 0.001c0.102 0.123 0.155 0.279 0.15 0.438 0 0.073-0.008 0.146-0.024 0.218l0.004 0.007zM16.952 28.641c-0.082 0.081-0.15 0.176-0.198 0.282l-0.002 0.006c-0.060 0.116-0.096 0.253-0.097 0.398v0c-0 0.004-0 0.010-0 0.015 0 0.068 0.017 0.131 0.047 0.187l-0.001-0.002c0.020 0.045 0.065 0.077 0.116 0.078h0c0.155-0.016 0.289-0.095 0.376-0.212l0.001-0.001c0.125-0.129 0.195-0.301 0.196-0.48 0-0.006 0-0.012 0-0.019 0-0.085-0.024-0.164-0.066-0.23l0.001 0.002c-0.035-0.058-0.099-0.097-0.171-0.097-0.002 0-0.004 0-0.006 0h0c-0 0-0 0-0 0-0.075 0-0.143 0.028-0.195 0.075l0-0h-0.002zM18.867 29.097c0.047 0.011 0.088 0.030 0.124 0.057l-0.001-0.001c0.053 0.043 0.099 0.093 0.136 0.149 0.067 0.102 0.148 0.195 0.239 0.276 0.052 0.041 0.119 0.065 0.192 0.066h0c0.072 0 0.109 0.022 0.109 0.067-0.006 0.053-0.034 0.099-0.075 0.129l-0 0c-0.057 0.042-0.129 0.067-0.206 0.067-0.010 0-0.020-0-0.029-0.001l0.001 0c-0.166 0-0.332-0.136-0.501-0.407-0.099-0.16-0.181-0.238-0.247-0.238-0.027 0.004-0.051 0.011-0.074 0.020l0.002-0.001c-0.028 0.007-0.053 0.019-0.075 0.035l0.001-0c-0.019 0.049-0.030 0.107-0.030 0.167 0 0.007 0 0.013 0 0.019l-0-0.001-0.015 0.268c-0.003 0.045-0.024 0.085-0.055 0.113l-0 0c-0.032 0.029-0.074 0.047-0.12 0.047-0.002 0-0.005-0-0.007-0h0c-0.002 0-0.005 0-0.008 0-0.045 0-0.087-0.017-0.118-0.044l0 0c-0.026-0.022-0.043-0.054-0.045-0.091v-0c0.006-0.080 0.019-0.159 0.038-0.237 0.067-0.371 0.113-0.745 0.137-1.121 0.007-0.058 0.033-0.11 0.070-0.149l-0 0c0.036-0.042 0.090-0.069 0.149-0.070h0c0.001-0 0.002-0 0.003-0 0.040 0 0.075 0.020 0.096 0.050l0 0c0.025 0.031 0.041 0.072 0.041 0.115 0 0.001 0 0.002-0 0.003v-0c-0 0.038-0.007 0.074-0.019 0.108l0.001-0.002c-0.026 0.084-0.047 0.17-0.063 0.256-0.026 0.13-0.042 0.228-0.048 0.299 0.101-0.028 0.193-0.079 0.27-0.149 0.089-0.092 0.169-0.192 0.241-0.298 0.064-0.096 0.138-0.179 0.223-0.249l0.002-0.002c0.063-0.050 0.143-0.080 0.23-0.080v0c0.051 0.001 0.096 0.023 0.129 0.058l0 0c0.034 0.030 0.056 0.072 0.058 0.12v0c0 0.002 0 0.005 0 0.008 0 0.029-0.013 0.055-0.033 0.073l-0 0c-0.032 0.023-0.070 0.041-0.111 0.052l-0.002 0c-0.088 0.034-0.165 0.091-0.223 0.166-0.109 0.137-0.236 0.254-0.378 0.349l-0.006 0.004zM22.249 28.201v-0.009c0.001-0.004 0.002-0.008 0.002-0.012s-0.001-0.009-0.002-0.012l0 0c-0.005-0.079-0.029-0.151-0.069-0.213l0.001 0.002c-0.043-0.077-0.108-0.137-0.186-0.172l-0.003-0.001c-0.065-0.032-0.141-0.051-0.222-0.054l-0.001-0c-0.064 0.010-0.126 0.032-0.181 0.066-0.043 0.025-0.094 0.042-0.148 0.047l-0.002 0c-0.073 0-0.109-0.032-0.109-0.1 0.015-0.075 0.053-0.14 0.104-0.189l0-0c0.081-0.078 0.191-0.127 0.313-0.127 0.018 0 0.035 0.001 0.053 0.003l-0.002-0c0.182-0.010 0.363 0.040 0.513 0.142 0.124 0.092 0.215 0.221 0.26 0.368 0.052 0.194 0.076 0.395 0.070 0.596-0.016 0.234-0.078 0.449-0.176 0.643l0.004-0.009c-0.089 0.228-0.239 0.427-0.435 0.574-0.152 0.112-0.343 0.181-0.549 0.183h-0.001c-0.095-0.006-0.177-0.055-0.228-0.127l-0.001-0.001c-0.067-0.082-0.107-0.188-0.107-0.303 0-0.005 0-0.009 0-0.014v0.001c-0.003-0.204 0.049-0.405 0.15-0.583 0.086-0.156 0.198-0.295 0.332-0.412 0.141-0.113 0.304-0.194 0.479-0.238 0.047-0.012 0.093-0.029 0.138-0.049zM22.307 28.51c-0.153 0.030-0.296 0.095-0.419 0.189-0.091 0.087-0.17 0.185-0.236 0.292l-0.004 0.006c-0.076 0.128-0.12 0.283-0.12 0.448 0 0.011 0 0.022 0.001 0.032l-0-0.002c0 0.026 0.008 0.052 0.021 0.075 0.014 0.024 0.026 0.036 0.035 0.036 0.165 0 0.325-0.118 0.485-0.352 0.145-0.201 0.234-0.452 0.237-0.724v-0.001zM24.387 29.701c-0.012 0.094-0.091 0.165-0.187 0.165-0.008 0-0.015-0-0.023-0.001l0.001 0c-0.098 0-0.183-0.082-0.259-0.244-0.073-0.155-0.13-0.336-0.161-0.524l-0.002-0.012c-0.021-0.111-0.037-0.188-0.055-0.263l0.008 0.037c0-0.017 0-0.047-0.012-0.093-0.002-0.029-0.006-0.056-0.013-0.083l0.001 0.003c-0.013 0.024-0.030 0.059-0.046 0.095l-0.005 0.012c-0.115 0.255-0.248 0.501-0.399 0.736l-0.018 0.033c-0.006 0.011-0.013 0.021-0.021 0.030v0c-0.121 0.215-0.22 0.322-0.299 0.322-0.11 0-0.165-0.048-0.165-0.149 0.016-0.113 0.068-0.218 0.15-0.298 0.187-0.25 0.351-0.517 0.488-0.797l0.206-0.395c0.021-0.035 0.059-0.059 0.103-0.059 0.004 0 0.008 0 0.012 0.001l-0-0c0.041 0.002 0.079 0.012 0.114 0.029l-0.002-0.001c0.035 0.013 0.066 0.036 0.087 0.067 0.018 0.041 0.032 0.084 0.041 0.128 0.071 0.328 0.134 0.587 0.19 0.777 0.026 0.135 0.090 0.259 0.186 0.358 0.046 0.020 0.078 0.066 0.078 0.118 0 0 0 0.001 0 0.001v-0l0.006 0.007zM26.076 28.337c-0.009 0.056-0.028 0.11-0.057 0.16-0.046 0.119-0.081 0.258-0.099 0.402l-0.001 0.009c-0.029 0.15-0.047 0.324-0.051 0.502l-0 0.003c0 0.053 0.004 0.106 0.012 0.158 0.007 0.060 0.011 0.12 0.011 0.18 0 0.026-0.020 0.051-0.061 0.076-0.031 0.021-0.069 0.035-0.11 0.037l-0.001 0c-0.007 0.001-0.015 0.001-0.023 0.001-0.047 0-0.091-0.014-0.127-0.039l0.001 0c-0.029-0.030-0.048-0.070-0.048-0.116 0-0.006 0-0.011 0.001-0.017l-0 0.001c0.001-0.091 0.007-0.182 0.018-0.273 0.008-0.058 0.013-0.118 0.015-0.177-0.225 0.182-0.438 0.379-0.637 0.589-0.020 0.020-0.042 0.037-0.066 0.051l-0.001 0.001c-0.019 0.014-0.043 0.023-0.068 0.027l-0.001 0c-0.099 0-0.163-0.061-0.195-0.185 0-0.024 0.029-0.064 0.082-0.119 0.038-0.040 0.080-0.076 0.125-0.107 0.030-0.018 0.157-0.113 0.382-0.286-0.007 0-0.016 0.001-0.024 0.001-0.138 0-0.263-0.057-0.351-0.15l-0-0c-0.041-0.057-0.066-0.129-0.066-0.207 0-0.002 0-0.004 0-0.005v0c0.009-0.163 0.095-0.303 0.223-0.387l0.002-0.001c0.166-0.123 0.359-0.206 0.563-0.241 0.038-0.003 0.076-0.009 0.113-0.016s0.077-0.014 0.115-0.016c0.025-0.002 0.049-0.002 0.073 0h0.042c0.046 0.002 0.088 0.016 0.124 0.039l-0.001-0.001c0.038 0.018 0.067 0.051 0.079 0.092l0 0.001 0.007 0.012zM25.692 28.486c-0.168 0.016-0.321 0.069-0.454 0.151l0.005-0.003c-0.089 0.045-0.152 0.131-0.165 0.232l-0 0.001c0 0.018 0.015 0.036 0.042 0.054 0.036 0.019 0.078 0.030 0.123 0.030 0.010 0 0.019-0 0.028-0.001l-0.001 0c0.108 0.004 0.215-0.008 0.319-0.034 0.015-0.018 0.025-0.040 0.030-0.065l0-0.001 0.073-0.365zM28.023 29.747c0 0.001 0 0.001 0 0.002 0 0.082-0.067 0.149-0.149 0.149-0.007 0-0.014-0-0.021-0.001l0.001 0c-0.128 0-0.192-0.093-0.192-0.276-0.003-0.255 0.014-0.509 0.049-0.762 0.024-0.145 0.037-0.312 0.038-0.483v-0c0-0.001-0-0.002-0-0.003 0-0.036 0.014-0.069 0.036-0.093l-0 0c0.025-0.024 0.059-0.039 0.097-0.039 0.002 0 0.004 0 0.007 0h-0c0.15 0 0.218 0.089 0.218 0.265-0.015 0.148-0.040 0.294-0.076 0.438-0.025 0.098-0.041 0.198-0.048 0.299 0.28-0.611 0.53-0.915 0.748-0.914 0.002-0 0.004-0 0.007-0 0.087 0 0.164 0.042 0.211 0.107l0 0.001c0.072 0.148 0.101 0.313 0.085 0.477 0 0.227 0.013 0.338 0.036 0.338 0.078-0.099 0.139-0.21 0.183-0.328 0.073-0.174 0.174-0.336 0.299-0.478 0.065-0.069 0.157-0.113 0.258-0.116l0.001-0c0.004-0 0.008-0 0.013-0 0.097 0 0.181 0.056 0.221 0.138l0.001 0.001c0.063 0.149 0.098 0.308 0.103 0.469 0.007 0.134 0.027 0.267 0.058 0.397 0.015 0.077 0.063 0.14 0.128 0.177l0.001 0.001c0.042 0.016 0.072 0.057 0.072 0.104 0 0 0 0.001 0 0.001v-0c-0.007 0.054-0.038 0.1-0.082 0.126l-0.001 0c-0.046 0.038-0.106 0.061-0.17 0.062h-0c-0.102-0.001-0.19-0.061-0.231-0.148l-0.001-0.002c-0.072-0.172-0.114-0.371-0.114-0.581 0-0.002 0-0.004 0-0.007v0c-0.005-0.103-0.017-0.2-0.036-0.294l0.002 0.012c-0.012-0.046-0.030-0.068-0.055-0.068s-0.052 0.034-0.093 0.102c-0.040 0.069-0.112 0.209-0.212 0.415-0.065 0.149-0.142 0.277-0.232 0.395l0.003-0.004c-0.047 0.064-0.121 0.106-0.204 0.11l-0.001 0c-0.066-0.003-0.126-0.030-0.171-0.073l0 0c-0.057-0.048-0.087-0.224-0.093-0.528 0-0.271-0.021-0.407-0.052-0.407s-0.139 0.121-0.299 0.362c-0.123 0.187-0.238 0.403-0.333 0.629l-0.010 0.027zM31.697 28.358c0.099 0.052 0.177 0.136 0.221 0.238 0.055 0.121 0.081 0.253 0.078 0.386 0 0.005 0 0.010 0 0.015 0 0.248-0.093 0.474-0.245 0.646l0.001-0.001c-0.122 0.164-0.312 0.271-0.527 0.282l-0.002 0c-0.006 0-0.012 0-0.019 0-0.159 0-0.3-0.077-0.388-0.195l-0.001-0.001c-0.095-0.145-0.152-0.322-0.152-0.513 0-0.024 0.001-0.047 0.003-0.071l-0 0.003c0.002-0.311 0.057-0.62 0.163-0.913 0.085-0.27 0.222-0.502 0.401-0.696l-0.001 0.001c0.123-0.137 0.298-0.225 0.494-0.233l0.001-0c0.005-0 0.010-0 0.015-0 0.099 0 0.189 0.041 0.254 0.106l0 0c0.063 0.070 0.102 0.164 0.102 0.267 0 0.007-0 0.014-0.001 0.022l0-0.001c-0.009 0.113-0.047 0.221-0.112 0.313-0.079 0.127-0.175 0.243-0.286 0.344zM31.628 29.012c0-0.006 0-0.012 0-0.019 0-0.096-0.018-0.188-0.052-0.272l0.002 0.005c-0.021-0.069-0.078-0.12-0.148-0.133l-0.001-0c-0.020 0.012-0.039 0.024-0.057 0.038l-0.344 0.258c-0.011 0.075-0.018 0.161-0.018 0.249 0 0.001 0 0.002 0 0.003v-0c0 0.313 0.078 0.47 0.232 0.47 0.121-0.006 0.223-0.078 0.271-0.182l0.001-0.002c0.073-0.12 0.112-0.257 0.114-0.398v-0.018zM31.101 28.509c0.206-0.151 0.393-0.327 0.554-0.525 0.053-0.073 0.087-0.158 0.097-0.247 0-0.082-0.026-0.122-0.076-0.122-0.093 0-0.192 0.081-0.299 0.244-0.125 0.201-0.218 0.421-0.276 0.65zM33.296 29.355c-0.254 0.334-0.499 0.501-0.735 0.501-0 0-0 0-0 0-0.090 0-0.171-0.040-0.226-0.102l-0-0c-0.059-0.066-0.096-0.154-0.096-0.251 0-0.005 0-0.009 0-0.014l-0 0.001c0.019-0.305 0.141-0.594 0.346-0.821 0.23-0.291 0.462-0.436 0.695-0.435 0.003-0 0.007-0 0.011-0 0.109 0 0.2 0.076 0.223 0.177l0 0.002c0.112 0 0.168 0.041 0.168 0.128-0.004 0.074-0.015 0.148-0.032 0.221-0.034 0.158-0.053 0.317-0.058 0.479-0.004 0.088 0.004 0.177 0.026 0.262 0.011 0.034 0.023 0.067 0.038 0.1 0.018 0.023 0.042 0.040 0.069 0.049l0.001 0c0.033 0.011 0.057 0.041 0.058 0.078v0c-0.002 0.053-0.032 0.099-0.076 0.123l-0.001 0c-0.042 0.029-0.093 0.047-0.149 0.049h-0c-0.001 0-0.002 0-0.004 0-0.089 0-0.165-0.057-0.193-0.136l-0-0.001c-0.038-0.089-0.060-0.192-0.060-0.301 0-0.007 0-0.013 0-0.020l-0 0.001v-0.044c-0.003-0.013-0.005-0.029-0.005-0.045v-0zM33.217 28.544c-0.099 0-0.226 0.107-0.384 0.325-0.132 0.156-0.215 0.348-0.235 0.552 0 0.081 0.016 0.121 0.049 0.121 0.115 0 0.256-0.103 0.425-0.305 0.141-0.145 0.23-0.333 0.252-0.534 0-0.003 0-0.006 0-0.010 0-0.040-0.013-0.077-0.034-0.107l0 0.001c-0.016-0.024-0.043-0.040-0.073-0.041h-0zM34.47 29.744c-0.019 0.079-0.044 0.224-0.073 0.435s-0.047 0.352-0.052 0.425c-0.005 0.071-0.032 0.134-0.075 0.184l0-0c-0.028 0.040-0.070 0.068-0.118 0.076l-0.001 0c-0.049-0.001-0.094-0.017-0.129-0.045l0.001 0c-0.037-0.023-0.062-0.062-0.064-0.107l-0-0c0.002-0.098 0.015-0.191 0.038-0.281l-0.002 0.008c0.148-0.588 0.229-1.191 0.241-1.798v-0.029c-0-0.015-0.001-0.032-0.001-0.050 0-0.069 0.004-0.136 0.012-0.203l-0.001 0.008c0.019-0.076 0.072-0.137 0.141-0.166l0.002-0.001c0.022-0.009 0.047-0.014 0.074-0.014 0.002 0 0.005 0 0.007 0h-0c0 0 0 0 0.001 0 0.048 0 0.090 0.025 0.114 0.062l0 0.001c0.024 0.044 0.039 0.097 0.039 0.153 0 0.011-0.001 0.022-0.002 0.032l0-0.001c-0.005 0.141-0.020 0.28-0.043 0.419 0.1-0.172 0.232-0.323 0.387-0.447 0.11-0.099 0.252-0.164 0.409-0.176l0.002-0c0.002-0 0.004-0 0.006-0 0.107 0 0.204 0.045 0.272 0.116l0 0c0.071 0.072 0.116 0.171 0.116 0.281 0 0.006-0 0.012-0 0.018l0-0.001c-0.004 0.336-0.144 0.638-0.367 0.855l-0 0c-0.243 0.256-0.485 0.384-0.724 0.384-0.007 0.001-0.015 0.001-0.023 0.001-0.088 0-0.162-0.059-0.185-0.14l-0-0.001zM35.319 28.552c-0.119 0-0.273 0.116-0.462 0.347s-0.285 0.413-0.285 0.544c0.001 0.038 0.021 0.071 0.051 0.091l0 0c0.031 0.025 0.070 0.041 0.113 0.041 0.001 0 0.002 0 0.003-0h-0c0.125 0 0.267-0.097 0.427-0.291 0.143-0.153 0.229-0.351 0.241-0.56 0.001-0.006 0.001-0.013 0.001-0.020 0-0.041-0.011-0.080-0.030-0.113l0.001 0.001c-0.010-0.021-0.030-0.036-0.053-0.040l-0-0h-0.006zM37.164 29.306c-0.081 0.154-0.192 0.292-0.324 0.405-0.1 0.089-0.231 0.144-0.375 0.149l-0.001 0c-0.092-0.007-0.172-0.051-0.227-0.117l-0-0.001c-0.072-0.086-0.116-0.198-0.116-0.32 0-0.015 0.001-0.030 0.002-0.044l-0 0.002c0.009-0.177 0.038-0.352 0.087-0.523 0.043-0.142 0.068-0.288 0.076-0.436 0.028-0.072 0.097-0.122 0.178-0.122 0.001 0 0.003 0 0.004 0h-0c0.003-0 0.006-0 0.009-0 0.050 0 0.095 0.021 0.126 0.056l0 0c0.031 0.030 0.050 0.070 0.051 0.113-0.008 0.109-0.034 0.211-0.076 0.304l0.002-0.006c-0.031 0.084-0.062 0.191-0.087 0.3l-0.004 0.020c-0.022 0.077-0.039 0.168-0.048 0.261l-0 0.006c0 0.128 0.026 0.194 0.079 0.194 0.085 0 0.199-0.082 0.344-0.244 0.132-0.141 0.229-0.311 0.282-0.497 0.024-0.113 0.063-0.223 0.116-0.325 0.029-0.047 0.081-0.078 0.139-0.078 0.004 0 0.007 0 0.011 0l-0-0c0.102 0 0.15 0.057 0.15 0.169-0.004 0.034-0.013 0.068-0.026 0.1-0.060 0.188-0.089 0.383-0.087 0.58 0 0.253 0.044 0.404 0.129 0.447 0.024 0.011 0.041 0.034 0.043 0.061l0 0c0 0.034-0.026 0.069-0.075 0.099-0.040 0.028-0.089 0.045-0.142 0.048l-0.001 0c-0.076 0-0.137-0.055-0.178-0.163-0.040-0.119-0.064-0.256-0.064-0.398 0-0.013 0-0.026 0.001-0.039l-0 0.002zM39.37 29.245c0 0.222 0.037 0.359 0.105 0.414 0.031 0.021 0.053 0.054 0.058 0.092l0 0.001c0 0.035-0.026 0.068-0.075 0.1-0.040 0.027-0.088 0.044-0.14 0.046l-0.001 0c-0.096-0.005-0.175-0.069-0.203-0.156l-0-0.002c-0.045-0.12-0.072-0.259-0.072-0.405 0-0.019 0-0.037 0.001-0.056l-0 0.003v-0.103c-0.010-0.002-0.021-0.003-0.033-0.003s-0.023 0.001-0.034 0.003l0.001-0c-0.126 0.001-0.249 0.011-0.369 0.029l0.015-0.002c-0.133 0.016-0.201 0.036-0.201 0.058-0.004 0.057-0.015 0.111-0.033 0.161l0.001-0.004c-0.010 0.030-0.015 0.065-0.015 0.101 0 0.002 0 0.003 0 0.005v-0 0.122c0 0.002 0 0.005 0 0.007 0 0.062-0.020 0.12-0.053 0.167l0.001-0.001c-0.030 0.044-0.080 0.073-0.137 0.073-0.004 0-0.009-0-0.013-0l0.001 0c-0.114 0-0.172-0.064-0.172-0.192v-0.122c0.006-0.076 0.017-0.152 0.032-0.227 0.032-0.207 0.052-0.416 0.063-0.625l0.024-0.314c0.008-0.042 0.032-0.076 0.066-0.098l0.001-0c0.038-0.031 0.087-0.050 0.141-0.051h0c0.105 0 0.158 0.039 0.158 0.118v0.034c-0.032 0.172-0.055 0.346-0.066 0.521v0.010c0.14-0.001 0.277-0.010 0.411-0.029l-0.016 0.002c0.076-0.006 0.152-0.016 0.227-0.031 0.027-0.083 0.041-0.171 0.038-0.258 0.001-0.108 0.027-0.215 0.077-0.311 0.033-0.048 0.088-0.079 0.15-0.079 0.002 0 0.005 0 0.007 0h-0c0.051-0.005 0.102 0.011 0.142 0.044 0.023 0.024 0.037 0.056 0.037 0.092 0 0.010-0.001 0.019-0.003 0.029l0-0.001-0.025 0.108c0 0.020-0.012 0.048-0.024 0.090-0.055 0.179-0.083 0.366-0.085 0.553l0.014 0.090zM1.489 23.041c-0-0.013-0.001-0.028-0.001-0.044 0-0.211 0.037-0.413 0.105-0.6l-0.004 0.012c0.067-0.177 0.165-0.266 0.293-0.266 0.056 0.003 0.112 0.015 0.166 0.034 0.166 0.064 0.344 0.098 0.523 0.098 0.162-0.007 0.323-0.022 0.484-0.046 0.168-0.024 0.337-0.039 0.507-0.044 0.078-0.003 0.155 0.014 0.225 0.047 0.055 0.019 0.093 0.070 0.095 0.129v0c0 0.152-0.095 0.268-0.285 0.345-0.191 0.074-0.413 0.117-0.644 0.117-0.015 0-0.029-0-0.044-0.001l0.002 0c-0.139 0-0.303-0.006-0.493-0.017l-0.273-0.017v0.012c0 0.005 0.001 0.011 0.001 0.017s-0 0.012-0.001 0.018l0-0.001c0 0.015-0.009 0.044-0.018 0.086l-0.028 0.129c-0.040 0.167-0.082 0.393-0.128 0.678 0.162-0.084 0.337-0.14 0.518-0.166 0.171-0.040 0.344-0.066 0.519-0.077 0.356 0 0.627 0.078 0.812 0.234 0.173 0.158 0.281 0.385 0.281 0.638 0 0.020-0.001 0.039-0.002 0.059l0-0.003c-0.004 0.336-0.152 0.637-0.384 0.845l-0.001 0.001c-0.256 0.248-0.785 0.476-1.588 0.684-0.132 0.033-0.258 0.090-0.37 0.167-0.083 0.066-0.183 0.107-0.289 0.117-0.090-0.006-0.171-0.039-0.235-0.092l0.001 0.001c-0.086-0.061-0.128-0.117-0.128-0.16 0.005-0.065 0.023-0.128 0.052-0.186 0.027-0.060 0.043-0.124 0.047-0.189 0-0.336 0.012-0.627 0.034-0.872s0.107-0.807 0.253-1.687zM1.794 25.487c0.359-0.053 0.682-0.148 0.985-0.283l-0.024 0.009c0.324-0.14 0.53-0.275 0.617-0.404 0.070-0.087 0.114-0.192 0.129-0.303 0-0.332-0.153-0.498-0.459-0.498-0.243-0.004-0.486 0.023-0.722 0.083-0.138 0.026-0.269 0.082-0.383 0.163-0.070 0.106-0.113 0.235-0.117 0.374l-0 0.001c-0.026 0.189-0.039 0.379-0.040 0.57-0.005 0.096 0 0.193 0.015 0.288zM7.66 22.957c-0.121-0.007-0.263-0.011-0.406-0.011-0.256 0-0.51 0.013-0.759 0.038l0.031-0.003c-0.243 0.024-0.383 0.055-0.42 0.094-0.077 0.134-0.133 0.279-0.166 0.43-0.053 0.154-0.095 0.335-0.117 0.522l-0.001 0.012c0.072-0.013 0.156-0.031 0.254-0.051 0.267-0.068 0.539-0.115 0.814-0.141 0.099-0 0.196 0.029 0.277 0.085 0.076 0.044 0.126 0.125 0.127 0.218v0c0 0.005 0.001 0.011 0.001 0.017 0 0.059-0.024 0.112-0.063 0.151l-0 0c-0.028 0.025-0.059 0.051-0.090 0.076l-0.004 0.003c-0.085 0.029-0.175 0.044-0.265 0.044-0.267 0.023-0.532 0.067-0.793 0.13-0.141 0.019-0.268 0.061-0.384 0.12l0.007-0.003c-0.048 0.111-0.077 0.23-0.084 0.351-0.022 0.116-0.039 0.256-0.047 0.398l-0 0.009c0 0 0 0 0 0.001 0 0.027 0.016 0.049 0.038 0.060l0 0c0.070 0.001 0.139-0.006 0.207-0.020 0.107-0.025 0.368-0.074 0.785-0.146 0.206-0.044 0.462-0.083 0.723-0.108l0.029-0.002c0.097 0.001 0.193 0.025 0.279 0.069 0.083 0.040 0.14 0.124 0.14 0.221 0 0.004-0 0.009-0 0.013l0-0.001c0 0.234-0.302 0.351-0.905 0.351-0.022-0.001-0.047-0.001-0.073-0.001-0.273 0-0.537 0.036-0.789 0.104l0.021-0.005c-0.148 0.042-0.324 0.076-0.505 0.095l-0.014 0.001c-0.033 0.002-0.064 0.010-0.092 0.023l0.002-0.001c-0.038 0.015-0.081 0.024-0.127 0.024-0.003 0-0.006-0-0.010-0h0c-0.242 0-0.362-0.132-0.362-0.396 0.001-0.083 0.014-0.165 0.041-0.243 0.157-0.881 0.274-1.501 0.352-1.862 0.052-0.209 0.085-0.422 0.099-0.636-0.016-0.063-0.033-0.114-0.053-0.164l0.003 0.010c-0.017-0.048-0.029-0.104-0.032-0.162l-0-0.001c0.002-0.062 0.031-0.117 0.076-0.154l0-0c0.045-0.043 0.107-0.069 0.174-0.069 0.001 0 0.002 0 0.003 0h-0c0.051 0.001 0.101 0.019 0.141 0.051 0.010 0.011 0.020 0.020 0.031 0.029l0.001 0c0.084 0 0.375-0.028 0.871-0.083 0.495-0.054 0.766-0.082 0.813-0.082 0.323 0 0.485 0.102 0.484 0.305 0.001 0.151-0.087 0.247-0.263 0.288zM11.218 25.054c0.008-0.001 0.017-0.002 0.026-0.002 0.090 0 0.163 0.073 0.163 0.163 0 0.007-0 0.014-0.001 0.021l0-0.001c0 0.151-0.181 0.337-0.544 0.557-0.297 0.197-0.659 0.318-1.048 0.33l-0.003 0c-0.312-0.002-0.599-0.111-0.824-0.293l0.002 0.002c-0.232-0.188-0.379-0.473-0.379-0.792 0-0.022 0.001-0.043 0.002-0.064l-0 0.003c0-0.38 0.131-0.801 0.395-1.264 0.251-0.45 0.579-0.827 0.969-1.126l0.009-0.006c0.392-0.291 0.771-0.437 1.138-0.437 0.010-0.001 0.023-0.001 0.035-0.001 0.191 0 0.365 0.075 0.494 0.197l-0-0c0.121 0.115 0.197 0.277 0.197 0.457 0 0.001 0 0.002 0 0.003v-0c0.001 0.018 0.001 0.040 0.001 0.062 0 0.123-0.017 0.243-0.048 0.356l0.002-0.009c-0.037 0.092-0.104 0.166-0.188 0.212l-0.002 0.001c-0.066 0.047-0.146 0.078-0.232 0.087l-0.002 0c-0.001 0-0.003 0-0.004 0-0.062 0-0.118-0.025-0.159-0.066v0c-0.043-0.042-0.070-0.101-0.070-0.167 0-0.004 0-0.009 0-0.013l-0 0.001c0.004-0.079 0.018-0.158 0.043-0.234 0.023-0.081 0.037-0.166 0.040-0.25 0-0.117-0.038-0.17-0.117-0.17-0.235 0-0.5 0.126-0.796 0.379-0.302 0.262-0.554 0.572-0.748 0.919l-0.009 0.017c-0.186 0.299-0.294 0.64-0.315 0.991-0.005 0.175 0.054 0.346 0.166 0.481 0.109 0.122 0.267 0.198 0.443 0.198 0.014 0 0.029-0 0.043-0.002l-0.002 0c0.171-0.008 0.331-0.044 0.48-0.104l-0.010 0.003c0.188-0.066 0.365-0.157 0.526-0.272 0.092-0.077 0.203-0.135 0.325-0.165l0.006-0.001zM14.233 22.994c-0.022 0.031-0.036 0.069-0.040 0.109l-0 0.001c-0.012 0.061-0.045 0.343-0.1 0.845-0.045 0.355-0.075 0.773-0.082 1.196l-0 0.010c0.001 0.142 0.018 0.282 0.052 0.42 0.008 0.022 0.014 0.048 0.017 0.075l0 0.001c-0 0.085-0.030 0.168-0.084 0.234-0.046 0.065-0.12 0.107-0.204 0.108h-0c-0.078-0.008-0.149-0.036-0.208-0.080l0.001 0.001c-0.086-0.062-0.143-0.159-0.149-0.27l-0-0.001c-0.016-0.134-0.025-0.289-0.025-0.446 0-0.018 0-0.037 0-0.055l-0 0.003c0.012-0.415 0.044-0.829 0.098-1.24 0.066-0.567 0.103-0.853 0.112-0.858-0.044 0-0.228 0.012-0.55 0.036s-0.511 0.038-0.56 0.038c-0.017 0.001-0.036 0.002-0.055 0.002-0.108 0-0.21-0.025-0.301-0.070l0.004 0.002c-0.060-0.042-0.099-0.11-0.099-0.188 0-0.006 0-0.012 0.001-0.018l-0 0.001c-0-0.003-0-0.006-0-0.010 0-0.077 0.041-0.145 0.103-0.182l0.001-0.001c0.070-0.044 0.247-0.067 0.531-0.067 0.466 0.001 0.932-0.030 1.394-0.092 0.343-0.063 0.745-0.105 1.154-0.117l0.012-0c0.296 0 0.469 0.034 0.54 0.104 0.055 0.053 0.091 0.125 0.096 0.206l0 0.001c0 0.159-0.072 0.234-0.213 0.234-0.046 0-0.117 0-0.222-0.015s-0.224-0.012-0.363-0.012c-0.416 0.004-0.703 0.036-0.862 0.095zM20.083 25.528c-0.009 0.028-0.015 0.061-0.015 0.095 0 0.010 0 0.020 0.001 0.030l-0-0.001c-0.001 0.112 0.012 0.223 0.038 0.332 0.007 0.026 0.011 0.055 0.011 0.085 0 0.069-0.020 0.134-0.055 0.188l0.001-0.001c-0.044 0.076-0.125 0.127-0.218 0.127-0.004 0-0.007-0-0.011-0l0 0c-0.227 0-0.34-0.139-0.34-0.416l0.009-0.21c0-0.028-0.005-0.042-0.014-0.042l-0.424 0.025c-0.021 0.001-0.046 0.002-0.070 0.002-0.291 0-0.557-0.107-0.762-0.283l0.001 0.001c-0.198-0.187-0.297-0.454-0.297-0.801 0.007-0.205 0.055-0.406 0.141-0.592 0.108-0.245 0.246-0.456 0.413-0.639l-0.002 0.002c0.152-0.18 0.326-0.335 0.52-0.462l0.009-0.006c0.205-0.121 0.419-0.227 0.64-0.316 0.034-0.013 0.067-0.029 0.099-0.047 0.026-0.015 0.041-0.022 0.044-0.020 0.053-0.078 0.081-0.171 0.078-0.265 0.003-0.163 0.043-0.323 0.118-0.468 0.056-0.077 0.172-0.117 0.352-0.117 0.127 0 0.19 0.082 0.19 0.248-0.008 0.1-0.024 0.192-0.047 0.281l0.003-0.012c-0.020 0.073-0.037 0.161-0.046 0.251l-0.001 0.008c-0 0.001-0 0.002-0 0.004 0 0.018 0.008 0.033 0.021 0.043l0 0c0.037 0.015 0.079 0.025 0.123 0.027l0.001 0c0.239 0.029 0.471 0.094 0.691 0.193 0.209 0.084 0.38 0.241 0.48 0.442 0.083 0.152 0.131 0.32 0.141 0.492-0.020 0.195-0.082 0.371-0.176 0.526l0.003-0.006c-0.17 0.285-0.389 0.522-0.648 0.708l-0.007 0.005c-0.288 0.231-0.616 0.429-0.969 0.582l-0.028 0.011zM19.666 23.183c-0.084 0.023-0.163 0.060-0.235 0.109-0.157 0.094-0.3 0.21-0.423 0.345-0.142 0.144-0.26 0.312-0.348 0.498l-0.005 0.011c-0.079 0.162-0.126 0.352-0.129 0.552v0.001c-0 0.008-0.001 0.017-0.001 0.026 0 0.15 0.071 0.283 0.181 0.369l0.001 0.001c0.145 0.1 0.32 0.149 0.497 0.14 0.061 0 0.118 0 0.188-0.007 0.040-0.002 0.076-0.005 0.113-0.011l-0.006 0.001c0.007 0 0.012-0.017 0.012-0.046 0-0.209 0.006-0.4 0.017-0.57s0.058-0.494 0.135-0.971c0.035-0.234 0.054-0.359 0.054-0.39 0-0 0-0.001 0-0.001 0-0.018-0.010-0.034-0.025-0.043l-0-0c-0.007-0.007-0.016-0.011-0.027-0.013l-0-0zM20.067 25.038c0.79-0.427 1.186-0.883 1.186-1.37-0.002-0.196-0.122-0.364-0.291-0.437l-0.003-0.001c-0.169-0.096-0.371-0.154-0.587-0.157h-0.001c-0.024 0.002-0.045 0.016-0.056 0.036l-0 0c-0.059 0.235-0.104 0.473-0.135 0.713-0.066 0.362-0.107 0.782-0.113 1.21l-0 0.005zM23.342 24.728c-0.037 0.303-0.058 0.608-0.062 0.914 0 0.001 0 0.003 0 0.005 0 0.090-0.031 0.172-0.082 0.237l0.001-0.001c-0.049 0.064-0.125 0.105-0.211 0.105-0.004 0-0.007-0-0.011-0l0.001 0c-0.202 0-0.303-0.117-0.303-0.351 0-0.131 0.047-0.567 0.142-1.312 0.078-0.604 0.117-0.963 0.117-1.079 0.006-0.076 0-0.152-0.017-0.226-0.097-0.051-0.161-0.151-0.161-0.266 0-0.009 0-0.018 0.001-0.027l-0 0.001c0-0.138 0.222-0.257 0.669-0.361 0.34-0.088 0.733-0.143 1.137-0.153l0.006-0c0.023-0.001 0.051-0.002 0.078-0.002 0.3 0 0.58 0.086 0.816 0.234l-0.006-0.004c0.2 0.129 0.33 0.351 0.33 0.603 0 0.005-0 0.009-0 0.014v-0.001c0 0.374-0.202 0.701-0.606 0.984-0.42 0.286-0.916 0.497-1.451 0.598l-0.024 0.004c-0.216 0.042-0.337 0.071-0.363 0.083zM23.56 22.883l-0.146 1.287c0.467-0.072 0.887-0.218 1.268-0.428l-0.020 0.010c0.358-0.201 0.538-0.416 0.538-0.646 0-0.273-0.218-0.41-0.652-0.41-0.358 0.009-0.698 0.076-1.014 0.193l0.022-0.007h0.003zM29.052 22.957c-0.122-0.007-0.264-0.011-0.407-0.011-0.256 0-0.51 0.013-0.759 0.039l0.031-0.003c-0.243 0.024-0.383 0.055-0.421 0.094-0.070 0.124-0.126 0.267-0.16 0.419l-0.002 0.010c-0.052 0.153-0.093 0.334-0.116 0.521l-0.001 0.014c0.073-0.013 0.157-0.031 0.253-0.051 0.232-0.062 0.509-0.112 0.793-0.139l0.021-0.002c0.099-0.001 0.196 0.029 0.278 0.085 0.076 0.044 0.126 0.125 0.127 0.218v0c0 0.005 0.001 0.011 0.001 0.017 0 0.059-0.024 0.112-0.064 0.15l-0 0c-0.030 0.028-0.061 0.054-0.094 0.078-0.085 0.029-0.175 0.044-0.265 0.044-0.267 0.021-0.532 0.063-0.793 0.124-0.139 0.023-0.264 0.066-0.378 0.129l0.006-0.003c-0.048 0.111-0.077 0.23-0.086 0.351-0.021 0.115-0.038 0.255-0.046 0.397l-0 0.010c0.001 0.027 0.018 0.050 0.042 0.060l0 0c0.070 0.001 0.139-0.006 0.206-0.020 0.108-0.025 0.369-0.074 0.785-0.146 0.205-0.044 0.462-0.083 0.722-0.108l0.029-0.002c0.098 0.001 0.194 0.025 0.281 0.069 0.083 0.040 0.139 0.124 0.139 0.22 0 0.005-0 0.009-0 0.014l0-0.001c0 0.234-0.3 0.351-0.905 0.351-0.022-0.001-0.047-0.001-0.073-0.001-0.273 0-0.537 0.036-0.788 0.104l0.021-0.005c-0.148 0.042-0.324 0.076-0.504 0.095l-0.014 0.001c-0.034 0.002-0.065 0.010-0.093 0.023l0.002-0.001c-0.043 0.017-0.089 0.026-0.135 0.025-0.242 0-0.363-0.132-0.363-0.396 0.001-0.083 0.015-0.165 0.042-0.243 0.156-0.881 0.274-1.501 0.352-1.862 0.051-0.209 0.084-0.422 0.099-0.637-0.016-0.063-0.033-0.114-0.052-0.164l0.003 0.010c-0.019-0.048-0.030-0.103-0.032-0.161l-0-0.001c0.001-0.063 0.031-0.118 0.076-0.155l0-0c0.045-0.043 0.106-0.069 0.173-0.069 0.001 0 0.003 0 0.004 0h-0c0.054 0.002 0.102 0.021 0.141 0.052l-0-0c0.009 0.011 0.020 0.021 0.032 0.029 0.084 0 0.374-0.028 0.87-0.083 0.494-0.054 0.765-0.082 0.814-0.082 0.322 0 0.483 0.102 0.483 0.305-0.013 0.153-0.1 0.246-0.276 0.287zM33.638 22.347c-0.021 0.27-0.062 0.538-0.124 0.801-0.156 0.748-0.258 1.617-0.282 2.507l-0 0.020c0 0 0 0 0 0 0 0.108-0.052 0.204-0.133 0.264l-0.001 0.001c-0.075 0.066-0.173 0.107-0.28 0.11h-0.001c-0.076-0-0.145-0.029-0.198-0.076l0 0c-0.054-0.044-0.090-0.109-0.093-0.183v-0c0.017-0.196 0.044-0.392 0.082-0.585 0.044-0.227 0.070-0.457 0.081-0.688 0-0.050-0.012-0.076-0.035-0.076-0.047 0-0.187 0.012-0.418 0.034-0.125 0.015-0.282 0.028-0.44 0.035l-0.014 0c-0.047 0-0.201 0.009-0.458 0.029-0.145 0.003-0.288 0.021-0.43 0.051-0.006 0-0.019 0.188-0.038 0.561-0.006 0.254-0.047 0.495-0.12 0.723l0.005-0.018c-0.031 0.111-0.13 0.192-0.249 0.193h-0c-0.008 0.001-0.016 0.001-0.025 0.001-0.097 0-0.184-0.046-0.239-0.117l-0.001-0.001c-0.052-0.066-0.083-0.15-0.085-0.242v-0c0.011-0.13 0.032-0.249 0.065-0.364l-0.003 0.013c0.033-0.14 0.131-0.934 0.294-2.383l0.051-0.468c0.009-0.067 0.042-0.126 0.090-0.167l0-0c0.046-0.042 0.107-0.068 0.175-0.068h0c0.003-0 0.006-0 0.010-0 0.096 0 0.183 0.033 0.253 0.088l-0.001-0.001c0.066 0.046 0.11 0.118 0.117 0.201l0 0.001v0.062c-0.014 0.26-0.052 0.504-0.112 0.739l0.006-0.026c-0.051 0.195-0.088 0.424-0.103 0.659l-0.001 0.011c0 0.023 0.038 0.034 0.117 0.034 0.293 0 0.638-0.017 1.035-0.052s0.611-0.078 0.643-0.129c0.051-0.19 0.086-0.384 0.103-0.579 0.038-0.31 0.064-0.614 0.072-0.915 0-0.037 0.040-0.090 0.117-0.157 0.061-0.058 0.143-0.096 0.234-0.101l0.001-0c0.080 0.001 0.158 0.024 0.226 0.067 0.065 0.034 0.109 0.101 0.109 0.179 0 0 0 0 0 0v-0l-0.002 0.013zM35.276 24.46c0.017-0.034 0.036-0.067 0.054-0.096 0.061-0.102 0.28-0.551 0.657-1.348 0.175-0.375 0.282-0.594 0.319-0.656 0.046-0.070 0.108-0.126 0.181-0.163l0.003-0.001c0.078-0.044 0.166-0.070 0.256-0.075 0.172 0 0.282 0.037 0.332 0.117s0.106 0.299 0.174 0.675c0.025 0.143 0.050 0.263 0.077 0.361s0.034 0.14 0.036 0.164c0.087 0.401 0.195 0.797 0.326 1.185 0.067 0.238 0.164 0.467 0.288 0.682 0.055-0.006 0.111-0.010 0.166-0.009 0.012-0.001 0.026-0.002 0.041-0.002 0.072 0 0.139 0.021 0.196 0.057l-0.001-0.001c0.040 0.049 0.064 0.112 0.064 0.18 0 0.013-0.001 0.025-0.002 0.038l0-0.001c0 0.234-0.017 0.58-0.052 1.037-0.013 0.16-0.020 0.248-0.020 0.262-0.004 0.073-0.039 0.138-0.091 0.181l-0 0c-0.058 0.054-0.136 0.087-0.222 0.087-0.005 0-0.009-0-0.014-0l0.001 0c-0.047-0.001-0.091-0.016-0.128-0.040l0.001 0.001c-0.036-0.021-0.067-0.046-0.094-0.076l-0-0c-0.019-0.033-0.030-0.072-0.030-0.114 0-0.008 0-0.016 0.001-0.024l-0 0.001c0-0.066 0.011-0.198 0.032-0.398 0.013-0.101 0.023-0.222 0.027-0.345l0-0.006c0-0.188-0.017-0.281-0.054-0.281-0.322 0-1.251 0.070-2.789 0.209-0.149 0.012-0.228 0.028-0.235 0.049-0.070 0.194-0.113 0.418-0.117 0.651l-0 0.002v0.128c0.002 0.012 0.003 0.026 0.003 0.040 0 0.163-0.131 0.295-0.294 0.296h-0.025c-0.011 0.002-0.024 0.003-0.037 0.003-0.059 0-0.114-0.022-0.155-0.058l0 0c-0.047-0.046-0.077-0.11-0.077-0.181 0-0.007 0-0.015 0.001-0.022l-0 0.001c0-0.101 0.027-0.361 0.081-0.782 0.009-0.079 0.016-0.153 0.020-0.221-0-0.002-0-0.004-0-0.007 0-0.087 0.023-0.168 0.062-0.238l-0.001 0.002c0.056-0.069 0.14-0.113 0.234-0.117l0.001-0c0.096-0.026 0.174-0.088 0.221-0.17l0.001-0.002c0.015-0.022 0.031-0.046 0.047-0.068 0.086-0.134 0.265-0.436 0.538-0.908zM35.348 25.534l1.918-0.16c-0.047-0.193-0.109-0.401-0.187-0.625-0.034-0.085-0.089-0.246-0.139-0.408l-0.020-0.075c-0.070-0.228-0.148-0.54-0.212-0.856l-0.012-0.071-0.071-0.344c-0.024 0.055-0.163 0.34-0.416 0.851-0.262 0.548-0.444 0.899-0.633 1.247l0.086-0.175c-0.118 0.196-0.224 0.399-0.318 0.608l0.003 0.009zM40.105 22.874c-0.047 0.047-0.085 0.101-0.112 0.161-0.034 0.063-0.079 0.119-0.132 0.166-0.065 0.045-0.134 0.082-0.208 0.11-0.070 0.034-0.145 0.055-0.222 0.061-0.002 0-0.005 0-0.007 0-0.063 0-0.121-0.020-0.169-0.053l0.001 0.001c-0.045-0.031-0.074-0.082-0.074-0.14 0-0.002 0-0.004 0-0.006v0c0-0.105 0.084-0.252 0.254-0.439 0.203-0.209 0.448-0.375 0.722-0.484l0.014-0.005c0.276-0.126 0.599-0.202 0.938-0.207l0.002-0c0.182 0.001 0.344 0.089 0.445 0.225l0.001 0.001c0.124 0.151 0.19 0.34 0.186 0.535-0.017 0.166-0.080 0.323-0.182 0.455-0.122 0.18-0.264 0.334-0.426 0.464l-0.004 0.003c0.162 0.027 0.31 0.106 0.422 0.224 0.076 0.091 0.141 0.19 0.195 0.295 0.054 0.139 0.078 0.288 0.070 0.436 0 0.413-0.196 0.764-0.588 1.053s-0.747 0.436-1.065 0.439c-0.307-0.001-0.594-0.088-0.837-0.237l0.007 0.004c-0.234-0.117-0.393-0.354-0.395-0.628v-0c-0-0.005-0.001-0.012-0.001-0.018 0-0.129 0.104-0.233 0.233-0.233 0.004 0 0.009 0 0.013 0l-0.001-0c0.003-0 0.007-0 0.011-0 0.059 0 0.114 0.019 0.159 0.052l-0.001-0.001c0.065 0.055 0.119 0.119 0.163 0.192 0.074 0.101 0.169 0.184 0.279 0.243 0.104 0.060 0.222 0.093 0.341 0.095 0.309-0 0.584-0.141 0.767-0.362l0.001-0.002c0.215-0.243 0.323-0.444 0.322-0.602 0-0.005 0-0.010 0-0.016 0-0.156-0.058-0.298-0.154-0.406l0.001 0.001c-0.091-0.105-0.224-0.171-0.373-0.171-0.003 0-0.005 0-0.008 0h0c-0.11 0.008-0.216 0.042-0.309 0.1-0.101 0.062-0.221 0.103-0.35 0.111l-0.002 0c-0.084-0.004-0.162-0.029-0.229-0.069l0.002 0.001c-0.073-0.029-0.125-0.096-0.129-0.177l-0-0.001c0.008-0.042 0.026-0.079 0.050-0.111l-0 0.001c0.025-0.044 0.061-0.079 0.104-0.102l0.001-0.001c0.037-0.017 0.153-0.058 0.352-0.124 0.193-0.055 0.361-0.135 0.512-0.238l-0.006 0.004c0.123-0.098 0.228-0.217 0.31-0.351 0.083-0.113 0.132-0.248 0.142-0.388 0-0.134-0.052-0.199-0.155-0.199-0.253 0.012-0.547 0.118-0.882 0.334z"></path>
</symbol>
<symbol id="icon-paw" viewBox="0 0 33 32">
<path d="M25.39 7.351c-0.557-0.549-1.198-0.836-1.853-0.828-0.31 0.003-0.604 0.073-0.867 0.197l0.013-0.005c-1.136 0.528-1.797 2.121-1.646 3.966 0.186 2.286 1.493 4.002 3.038 3.993 0.311-0.002 0.613-0.069 0.898-0.201 1.157-0.538 1.881-2.054 1.801-3.774-0.059-1.301-0.576-2.552-1.383-3.346zM9.463 16.085c-1.314-1.304-2.96-1.826-4.094-1.298-0.265 0.123-0.501 0.302-0.698 0.528-0.428 0.496-0.622 1.171-0.562 1.952 0.088 1.129 0.711 2.331 1.667 3.216 1.264 1.168 2.889 1.593 4.046 1.055 0.284-0.133 0.531-0.32 0.733-0.556 1.004-1.176 0.534-3.281-1.093-4.898zM11.876 14.692c0.107-0.045 0.211-0.097 0.311-0.155 0.583-0.345 0.99-0.914 1.177-1.65 0.302-1.187-0.131-2.626-0.922-3.943-1.219-2.032-3.086-3.104-4.629-2.467 0 0-0.217 0.101-0.321 0.163-0.637 0.376-1.083 1.006-1.289 1.819-0.299 1.179-0.041 2.608 0.688 3.823 1.205 2.010 3.396 3.068 4.987 2.412zM15.931 14.828c-3.627 1.685-5.251 7.683-3.326 11.824 0.574 1.235 1.655 1.941 2.453 2.066 0.986 0.153 1.606 0.104 2.708-0.408 1.309-0.608 1.449-1.23 1.874-1.919 0.307-0.497 0.573-0.928 1.116-1.18s1.043-0.178 1.622-0.091c0.801 0.119 1.367 0.411 2.676-0.197 1.101-0.512 1.539-0.955 2.057-1.808 0.419-0.69 0.576-1.971 0.003-3.207-1.925-4.14-7.556-6.766-11.184-5.080zM18.094 11.767c0.126-0.044 0.231-0.090 0.333-0.144l-0.014 0.006c1.527-0.793 2.13-3.15 1.371-5.366-0.458-1.34-1.385-2.458-2.48-2.99-0.754-0.368-1.492-0.425-2.19-0.181-0.115 0.040-0.357 0.144-0.357 0.144-1.483 0.769-1.872 2.877-1.104 5.119 0.496 1.455 1.317 2.713 2.419 3.248 0.682 0.332 1.381 0.389 2.021 0.165z"></path>
</symbol>
<symbol id="icon-telegram" viewBox="0 0 32 32">
<path d="M15.6 0.8c-8.17 0-14.8 6.63-14.8 14.8s6.63 14.8 14.8 14.8 14.8-6.63 14.8-14.8-6.63-14.8-14.8-14.8zM22.467 10.864c-0.222 2.338-1.184 8.022-1.672 10.641-0.208 1.11-0.622 1.48-1.007 1.525-0.858 0.074-1.509-0.562-2.338-1.11-1.302-0.858-2.042-1.392-3.301-2.22-1.466-0.962-0.518-1.495 0.326-2.354 0.222-0.222 4.011-3.67 4.085-3.982 0.004-0.019 0.007-0.040 0.007-0.063 0-0.079-0.031-0.15-0.080-0.203l0 0c-0.089-0.074-0.208-0.045-0.311-0.030-0.134 0.030-2.206 1.406-6.246 4.129-0.592 0.4-1.125 0.606-1.598 0.592-0.533-0.014-1.539-0.296-2.294-0.547-0.933-0.296-1.658-0.459-1.598-0.977 0.030-0.266 0.399-0.533 1.095-0.814 4.322-1.88 7.192-3.123 8.628-3.715 4.114-1.717 4.958-2.012 5.52-2.012 0.118 0 0.4 0.030 0.578 0.177 0.148 0.118 0.192 0.282 0.207 0.4-0.014 0.089 0.014 0.355 0 0.562z"></path>
</symbol>
<symbol id="icon-youtube" viewBox="0 0 32 32">
<path d="M16 4c1.3 0 2.632 0.033 3.925 0.087l1.526 0.072 1.461 0.086 1.368 0.091 1.25 0.096c1.409 0.108 2.661 0.703 3.605 1.614l-0.002-0.002c0.939 0.906 1.565 2.13 1.706 3.497l0.002 0.024 0.061 0.638 0.114 1.365c0.106 1.415 0.186 2.957 0.186 4.431s-0.079 3.016-0.186 4.431l-0.114 1.365c-0.020 0.219-0.040 0.43-0.061 0.638-0.143 1.392-0.77 2.616-1.707 3.521l-0.002 0.002c-0.943 0.91-2.195 1.504-3.584 1.611l-0.020 0.001-1.246 0.094-1.368 0.093-1.462 0.086-1.526 0.072c-1.307 0.056-2.616 0.086-3.925 0.087-1.388-0.002-2.761-0.034-4.126-0.094l0.201 0.007-1.526-0.072-1.461-0.086-1.368-0.093-1.25-0.094c-1.409-0.108-2.661-0.703-3.605-1.614l0.002 0.002c-0.939-0.906-1.565-2.13-1.706-3.497l-0.002-0.024-0.061-0.638-0.114-1.365c-0.11-1.313-0.177-2.857-0.186-4.415l-0-0.016c0-1.474 0.079-3.016 0.186-4.431l0.114-1.365c0.020-0.219 0.040-0.43 0.061-0.638 0.142-1.392 0.769-2.616 1.706-3.52l0.002-0.002c0.942-0.91 2.194-1.505 3.583-1.612l0.020-0.001 1.248-0.096 1.368-0.091 1.462-0.086 1.526-0.072c1.308-0.056 2.617-0.086 3.926-0.087zM12.96 12.362v7.275c0 0.693 0.76 1.125 1.368 0.78l6.384-3.638c0.139-0.079 0.254-0.192 0.334-0.33 0.078-0.129 0.123-0.285 0.123-0.452 0-0.333-0.183-0.623-0.453-0.776l-0.004-0.002-6.384-3.636c-0.131-0.076-0.288-0.121-0.455-0.121-0.335 0-0.628 0.179-0.789 0.446l-0.002 0.004c-0.080 0.137-0.122 0.293-0.122 0.45v-0.002z"></path>
</symbol>
</defs>
</svg>
