<svg width="1060" height="161" viewBox="0 0 1060 161" fill="none" xmlns="http://www.w3.org/2000/svg">
<g clip-path="url('#clip0_1392_12670')">
<path d="M-3.24944 161.548C-6.56423 163.02 -8.48388 165.942 -7.53119 168.077C-6.5785 170.212 -3.12456 170.753 0.193801 169.281C3.51216 167.81 5.42824 164.884 4.47555 162.749C3.52286 160.614 0.065351 160.076 -3.24944 161.548Z" fill="#C2D0E1" fill-opacity="0.3"></path>
<path d="M151.231 30.6005C150.158 34.092 146.63 33.9849 142.725 36.3257C137.017 39.76 133.454 37.8028 133.456 34.7209C133.459 31.6389 137.369 30.1073 138.176 26.9883L138.18 26.9601C138.18 26.9601 138.184 26.939 138.185 26.9285C139.116 23.8292 136.562 20.5072 138.156 17.8715C139.749 15.2358 143.813 15.4036 146.915 21.2969C149.054 25.3105 152.121 27.0545 151.231 30.6005Z" fill="#C2D0E1" fill-opacity="0.3"></path>
<path d="M704.339 118.863C703.266 122.355 699.738 122.248 695.832 124.588C690.125 128.023 686.561 126.066 686.564 122.984C686.566 119.902 690.476 118.37 691.283 115.251L691.288 115.223C691.288 115.223 691.291 115.202 691.293 115.191C692.223 112.092 689.67 108.77 691.263 106.134C692.856 103.499 696.92 103.666 700.023 109.56C702.162 113.573 705.229 115.317 704.339 118.863Z" fill="#C2D0E1" fill-opacity="0.3"></path>
<path d="M151.472 39.825C149.335 37.1291 146.193 36.0588 144.455 37.4332C142.717 38.8077 143.04 42.108 145.174 44.8033C147.308 47.4986 150.454 48.566 152.192 47.1915C153.93 45.8171 153.61 42.5173 151.472 39.825Z" fill="#C2D0E1" fill-opacity="0.3"></path>
<path d="M704.582 128.088C702.444 125.392 699.302 124.322 697.564 125.696C695.826 127.071 696.15 130.371 698.283 133.066C700.417 135.761 703.563 136.829 705.301 135.454C707.04 134.08 706.719 130.78 704.582 128.088Z" fill="#C2D0E1" fill-opacity="0.3"></path>
<path d="M156.22 22.8318C152.996 24.033 149.753 23.3218 148.98 21.2453C148.207 19.1687 150.19 16.5126 153.414 15.3149C156.638 14.1173 159.878 14.8244 160.654 16.9015C161.431 18.9786 159.44 21.6336 156.22 22.8318Z" fill="#C2D0E1" fill-opacity="0.3"></path>
<path d="M709.329 111.095C706.105 112.296 702.862 111.585 702.089 109.508C701.316 107.432 703.299 104.775 706.523 103.578C709.747 102.38 712.987 103.087 713.764 105.164C714.54 107.241 712.55 109.896 709.329 111.095Z" fill="#C2D0E1" fill-opacity="0.3"></path>
<path d="M160.334 34.1206C157.063 32.5495 153.593 32.9822 152.59 35.0882C151.588 37.1941 153.408 40.1749 156.676 41.749C159.943 43.323 163.421 42.8879 164.42 40.7814C165.419 38.6749 163.605 35.6952 160.334 34.1206Z" fill="#C2D0E1" fill-opacity="0.3"></path>
<path d="M713.442 122.383C710.17 120.812 706.7 121.245 705.698 123.351C704.695 125.457 706.516 128.438 709.783 130.012C713.051 131.586 716.528 131.151 717.527 129.044C718.526 126.938 716.713 123.958 713.442 122.383Z" fill="#C2D0E1" fill-opacity="0.3"></path>
<path d="M160.843 32.2966C157.23 31.9486 154.484 29.7831 154.709 27.4551C154.934 25.1271 158.042 23.5282 161.654 23.8762C165.266 24.2242 168.012 26.3932 167.787 28.7177C167.563 31.0422 164.455 32.6446 160.843 32.2966Z" fill="#C2D0E1" fill-opacity="0.3"></path>
<path d="M713.952 120.559C710.34 120.211 707.594 118.046 707.819 115.718C708.044 113.39 711.151 111.791 714.763 112.139C718.375 112.487 721.121 114.656 720.897 116.981C720.672 119.305 717.564 120.907 713.952 120.559Z" fill="#C2D0E1" fill-opacity="0.3"></path>
<path d="M312.48 48.7715C311.091 52.1582 307.59 51.7269 303.5 53.7061C297.503 56.6067 294.127 54.3331 294.412 51.2676C294.698 48.2021 298.731 47.0295 299.821 43.9956C299.821 43.9956 299.824 43.9744 299.826 43.9639C299.827 43.9533 299.826 43.9639 299.83 43.9357C301.032 40.9485 298.797 37.3961 300.622 34.9131C302.448 32.4301 306.482 32.9649 309.036 39.1204C310.792 43.2962 313.677 45.3179 312.48 48.7715Z" fill="#C2D0E1" fill-opacity="0.3"></path>
<path d="M865.589 137.034C864.201 140.421 860.7 139.99 856.61 141.969C850.612 144.87 847.236 142.596 847.522 139.531C847.807 136.465 851.84 135.293 852.93 132.259C852.93 132.259 852.933 132.237 852.935 132.227C852.937 132.216 852.935 132.227 852.94 132.199C854.141 129.212 851.906 125.659 853.732 123.176C855.557 120.693 859.591 121.228 862.146 127.383C863.901 131.559 866.786 133.581 865.589 137.034Z" fill="#C2D0E1" fill-opacity="0.3"></path>
<path d="M311.884 57.9769C309.999 55.1014 306.967 53.7492 305.111 54.9603C303.254 56.1714 303.276 59.4882 305.159 62.3672C307.043 65.2462 310.072 66.5944 311.929 65.3833C313.785 64.1722 313.764 60.8554 311.884 57.9769Z" fill="#C2D0E1" fill-opacity="0.3"></path>
<path d="M864.991 146.24C863.107 143.364 860.075 142.012 858.218 143.223C856.362 144.434 856.383 147.751 858.267 150.63C860.151 153.509 863.18 154.857 865.036 153.646C866.893 152.435 866.871 149.118 864.991 146.24Z" fill="#C2D0E1" fill-opacity="0.3"></path>
<path d="M318.15 41.4873C314.831 42.399 311.662 41.3856 311.086 39.2505C310.511 37.1154 312.721 34.6471 316.041 33.7465C319.362 32.8459 322.53 33.8481 323.109 35.9838C323.688 38.1196 321.471 40.5867 318.15 41.4873Z" fill="#C2D0E1" fill-opacity="0.3"></path>
<path d="M871.26 129.75C867.941 130.662 864.771 129.648 864.196 127.513C863.62 125.378 865.83 122.91 869.151 122.009C872.471 121.109 875.639 122.111 876.218 124.247C876.797 126.382 874.581 128.849 871.26 129.75Z" fill="#C2D0E1" fill-opacity="0.3"></path>
<path d="M321.224 53.1041C318.112 51.2409 314.613 51.3585 313.41 53.3602C312.208 55.3619 313.76 58.5019 316.874 60.3616C319.987 62.2214 323.485 62.1108 324.688 60.1056C325.891 58.1003 324.337 54.9674 321.224 53.1041Z" fill="#C2D0E1" fill-opacity="0.3"></path>
<path d="M874.334 141.367C871.221 139.504 867.722 139.621 866.52 141.623C865.317 143.625 866.87 146.765 869.983 148.624C873.096 150.484 876.594 150.374 877.797 148.368C879 146.363 877.446 143.23 874.334 141.367Z" fill="#C2D0E1" fill-opacity="0.3"></path>
<path d="M321.899 51.3352C318.332 50.6588 315.794 48.2525 316.227 45.9577C316.66 43.663 319.907 42.3463 323.47 43.0186C327.034 43.691 329.575 46.1014 329.138 48.3991C328.701 50.6967 325.463 52.0075 321.899 51.3352Z" fill="#C2D0E1" fill-opacity="0.3"></path>
<path d="M875.008 139.598C871.442 138.922 868.904 136.515 869.337 134.221C869.77 131.926 873.016 130.609 876.58 131.281C880.144 131.954 882.684 134.364 882.247 136.662C881.81 138.96 878.572 140.27 875.008 139.598Z" fill="#C2D0E1" fill-opacity="0.3"></path>
<path d="M472.752 107.217C470.634 110.198 467.317 108.996 462.888 110.004C456.388 111.488 453.612 108.517 454.585 105.579C455.558 102.642 459.747 102.437 461.491 99.7132L461.496 99.6851L461.5 99.6604C463.368 97.022 461.973 93.0555 464.325 91.0504C466.678 89.0453 470.474 90.4768 471.575 97.0453C472.342 101.521 474.707 104.127 472.752 107.217Z" fill="#C2D0E1" fill-opacity="0.3"></path>
<path d="M470.089 116.052C468.904 112.827 466.254 110.828 464.173 111.588C462.093 112.349 461.364 115.585 462.545 118.813C463.726 122.042 466.38 124.037 468.461 123.273C470.542 122.51 471.273 119.281 470.089 116.052Z" fill="#C2D0E1" fill-opacity="0.3"></path>
<path d="M479.922 101.401C476.482 101.531 473.627 99.843 473.541 97.6276C473.455 95.4121 476.173 93.5162 479.613 93.3854C483.052 93.2546 485.907 94.943 485.99 97.1544C486.073 99.3657 483.356 101.276 479.922 101.401Z" fill="#C2D0E1" fill-opacity="0.3"></path>
<path d="M480.291 113.417C477.676 110.905 474.243 110.228 472.622 111.91C471.001 113.592 471.807 116.995 474.414 119.51C477.021 122.025 480.462 122.699 482.083 121.017C483.704 119.335 482.907 115.923 480.291 113.417Z" fill="#C2D0E1" fill-opacity="0.3"></path>
<path d="M481.347 111.836C478.025 110.376 476.097 107.457 477.04 105.32C477.982 103.183 481.445 102.634 484.757 104.092C488.068 105.55 490.007 108.467 489.068 110.605C488.129 112.743 484.669 113.296 481.347 111.836Z" fill="#C2D0E1" fill-opacity="0.3"></path>
<path d="M71.7784 4.88906C73.1925 8.26308 70.4178 10.4459 68.9365 14.7273C66.7577 21.0156 62.7651 21.8013 60.7925 19.4314C58.8199 17.0614 60.8371 13.3821 59.454 10.4678L59.458 10.4432L59.4619 10.4185C58.1918 7.45382 54.0979 6.52688 53.625 3.4806C53.1521 0.434321 56.3877 -2.03194 62.5467 0.507348C66.7185 2.2336 70.1882 1.59873 71.7784 4.88906Z" fill="#C2D0E1" fill-opacity="0.3"></path>
<path d="M624.888 93.1519C626.302 96.5259 623.527 98.7087 622.046 102.99C619.867 109.278 615.874 110.064 613.902 107.694C611.929 105.324 613.946 101.645 612.563 98.7306L612.567 98.706L612.571 98.6814C611.301 95.7166 607.207 94.7897 606.734 91.7434C606.261 88.6971 609.497 86.2309 615.656 88.7702C619.828 90.4964 623.298 89.8615 624.888 93.1519Z" fill="#C2D0E1" fill-opacity="0.3"></path>
<path d="M77.88 11.819C74.5121 11.1203 71.416 12.3096 70.9495 14.4762C70.4829 16.6428 72.86 18.9693 76.2302 19.6539C79.6004 20.3385 82.6972 19.1674 83.1602 17.0002C83.6232 14.833 81.2474 12.5212 77.88 11.819Z" fill="#C2D0E1" fill-opacity="0.3"></path>
<path d="M630.989 100.082C627.621 99.3833 624.525 100.573 624.059 102.739C623.592 104.906 625.969 107.232 629.34 107.917C632.71 108.601 635.807 107.43 636.27 105.263C636.733 103.096 634.357 100.784 630.989 100.082Z" fill="#C2D0E1" fill-opacity="0.3"></path>
<path d="M70.6222 -4.26542C68.9167 -1.29043 65.9743 0.248295 64.0473 -0.85103C62.1204 -1.95036 61.9385 -5.25679 63.6457 -8.24233C65.353 -11.2279 68.2937 -12.756 70.2207 -11.6567C72.1476 -10.5574 72.3254 -7.24801 70.6222 -4.26542Z" fill="#C2D0E1" fill-opacity="0.3"></path>
<path d="M623.732 83.9975C622.026 86.9725 619.084 88.5112 617.157 87.4119C615.23 86.3126 615.048 83.0062 616.755 80.0206C618.462 77.0351 621.403 75.5069 623.33 76.6062C625.257 77.7055 625.435 81.0149 623.732 83.9975Z" fill="#C2D0E1" fill-opacity="0.3"></path>
<path d="M81.0247 1.77265C77.5049 2.65217 75.1175 5.21469 75.6904 7.47933C76.2633 9.74398 79.5782 10.8637 83.0991 9.97713C86.62 9.09058 89.0023 6.53805 88.4299 4.26988C87.8575 2.00172 84.5409 0.892576 81.0247 1.77265Z" fill="#C2D0E1" fill-opacity="0.3"></path>
<path d="M634.132 90.0354C630.612 90.9149 628.225 93.4774 628.798 95.7421C629.371 98.0067 632.686 99.1264 636.207 98.2399C639.727 97.3533 642.11 94.8008 641.537 92.5326C640.965 90.2645 637.648 89.1553 634.132 90.0354Z" fill="#C2D0E1" fill-opacity="0.3"></path>
<path d="M80.2409 0.0412029C77.2459 2.08764 73.7546 2.18127 72.4299 0.232844C71.1052 -1.71558 72.4674 -4.91527 75.4623 -6.96171C78.4572 -9.00815 81.9486 -9.10177 83.2733 -7.15335C84.5979 -5.20492 83.2388 -2.00115 80.2409 0.0412029Z" fill="#C2D0E1" fill-opacity="0.3"></path>
<path d="M633.35 88.3042C630.355 90.3506 626.864 90.4443 625.539 88.4958C624.215 86.5474 625.577 83.3477 628.572 81.3013C631.567 79.2549 635.058 79.1612 636.383 81.1097C637.707 83.0581 636.348 86.2618 633.35 88.3042Z" fill="#C2D0E1" fill-opacity="0.3"></path>
<path d="M234.797 12.707C234.991 16.3474 231.638 17.4667 228.791 21.0022C224.61 26.1864 220.585 25.5736 219.536 22.6767C218.486 19.7798 221.623 17.0019 221.321 13.7952C221.324 13.7861 221.325 13.7766 221.325 13.7671L221.33 13.7389C221.123 10.5187 217.6 8.26477 218.186 5.24026C218.772 2.21575 222.652 0.982528 227.594 5.45269C230.936 8.47881 234.413 9.06143 234.797 12.707Z" fill="#C2D0E1" fill-opacity="0.3"></path>
<path d="M787.905 100.97C788.098 104.61 784.746 105.729 781.899 109.265C777.718 114.449 773.693 113.836 772.643 110.939C771.593 108.043 774.731 105.265 774.428 102.058C774.431 102.049 774.433 102.039 774.433 102.03L774.437 102.002C774.231 98.7814 770.707 96.5275 771.293 93.503C771.879 90.4784 775.759 89.2452 780.702 93.7154C784.044 96.7415 787.521 97.3241 787.905 100.97Z" fill="#C2D0E1" fill-opacity="0.3"></path>
<path d="M238.193 21.2782C235.261 19.4801 231.943 19.5545 230.784 21.4405C229.625 23.3265 231.061 26.3178 233.992 28.1159C236.924 29.9141 240.246 29.8402 241.405 27.9542C242.563 26.0682 241.128 23.0769 238.193 21.2782Z" fill="#C2D0E1" fill-opacity="0.3"></path>
<path d="M791.302 109.541C788.37 107.743 785.052 107.817 783.893 109.703C782.734 111.589 784.17 114.581 787.102 116.379C790.033 118.177 793.355 118.103 794.514 116.217C795.673 114.331 794.237 111.34 791.302 109.541Z" fill="#C2D0E1" fill-opacity="0.3"></path>
<path d="M236.809 3.6921C234.193 5.92551 230.908 6.35539 229.463 4.68014C228.019 3.00489 228.974 -0.180617 231.587 -2.41108C234.199 -4.64155 237.488 -5.07437 238.933 -3.39912C240.377 -1.72387 239.422 1.45811 236.809 3.6921Z" fill="#C2D0E1" fill-opacity="0.3"></path>
<path d="M789.917 91.9549C787.3 94.1883 784.015 94.6181 782.571 92.9429C781.127 91.2676 782.082 88.0821 784.694 85.8517C787.307 83.6212 790.596 83.1884 792.04 84.8636C793.484 86.5389 792.53 89.7209 789.917 91.9549Z" fill="#C2D0E1" fill-opacity="0.3"></path>
<path d="M244.554 12.8813C240.943 12.5262 237.849 14.1274 237.602 16.4591C237.355 18.7908 240.133 20.9578 243.726 21.31C247.32 21.6622 250.431 20.0639 250.678 17.7322C250.925 15.4005 248.165 13.2363 244.554 12.8813Z" fill="#C2D0E1" fill-opacity="0.3"></path>
<path d="M797.663 101.144C794.052 100.789 790.959 102.39 790.711 104.722C790.464 107.054 793.242 109.221 796.836 109.573C800.429 109.925 803.54 108.327 803.788 105.995C804.035 103.663 801.274 101.499 797.663 101.144Z" fill="#C2D0E1" fill-opacity="0.3"></path>
<path d="M244.403 10.9986C240.893 11.912 237.567 10.8159 236.978 8.55599C236.39 6.29612 238.758 3.72319 242.269 2.80975C245.779 1.89631 249.105 2.99249 249.693 5.25236C250.282 7.51223 247.915 10.0816 244.403 10.9986Z" fill="#C2D0E1" fill-opacity="0.3"></path>
<path d="M797.513 99.2614C794.002 100.175 790.676 99.0787 790.088 96.8188C789.5 94.5589 791.867 91.986 795.378 91.0726C798.889 90.1591 802.215 91.2553 802.803 93.5152C803.391 95.775 801.024 98.3445 797.513 99.2614Z" fill="#C2D0E1" fill-opacity="0.3"></path>
<path d="M395.98 52.7938C395.401 56.4042 391.914 56.809 388.4 59.6817C383.245 63.9084 379.431 62.4742 378.995 59.4265C378.558 56.3788 382.206 54.2962 382.557 51.0933L382.566 51.0369C383.038 47.8643 380.038 44.9146 381.234 42.0745C382.43 39.2344 386.479 38.8223 390.396 44.2109C393.063 47.8832 396.353 49.1577 395.98 52.7938Z" fill="#C2D0E1" fill-opacity="0.3"></path>
<path d="M949.089 141.057C948.51 144.667 945.023 145.072 941.509 147.945C936.355 152.171 932.541 150.737 932.104 147.689C931.668 144.642 935.315 142.559 935.666 139.356L935.675 139.3C936.147 136.127 933.148 133.178 934.344 130.337C935.54 127.497 939.588 127.085 943.505 132.474C946.172 136.146 949.463 137.421 949.089 141.057Z" fill="#C2D0E1" fill-opacity="0.3"></path>
<path d="M397.541 61.8944C395.029 59.5354 391.78 58.928 390.257 60.539C388.734 62.1501 389.526 65.3667 392.028 67.7276C394.529 70.0884 397.793 70.6946 399.316 69.0871C400.838 67.4795 400.044 64.2483 397.541 61.8944Z" fill="#C2D0E1" fill-opacity="0.3"></path>
<path d="M950.651 150.157C948.138 147.798 944.889 147.191 943.366 148.802C941.843 150.413 942.636 153.629 945.137 155.99C947.639 158.351 950.902 158.957 952.425 157.35C953.947 155.742 953.154 152.511 950.651 150.157Z" fill="#C2D0E1" fill-opacity="0.3"></path>
<path d="M399.798 44.3934C396.78 46.0428 393.468 45.8042 392.403 43.8613C391.337 41.9183 392.921 39.0033 395.939 37.3539C398.957 35.7046 402.269 35.9431 403.334 37.8861C404.399 39.829 402.816 42.7441 399.798 44.3934Z" fill="#C2D0E1" fill-opacity="0.3"></path>
<path d="M952.907 132.656C949.889 134.306 946.577 134.067 945.512 132.124C944.447 130.181 946.03 127.266 949.048 125.617C952.066 123.968 955.378 124.206 956.443 126.149C957.509 128.092 955.925 131.007 952.907 132.656Z" fill="#C2D0E1" fill-opacity="0.3"></path>
<path d="M405.493 54.9754C402.033 53.8865 398.653 54.8137 397.957 57.0409C397.26 59.2681 399.496 61.9581 402.956 63.047C406.417 64.1359 409.796 63.2086 410.494 60.9779C411.191 58.7473 408.958 56.0614 405.493 54.9754Z" fill="#C2D0E1" fill-opacity="0.3"></path>
<path d="M958.601 143.238C955.14 142.149 951.761 143.077 951.064 145.304C950.367 147.531 952.603 150.221 956.064 151.31C959.525 152.399 962.904 151.472 963.601 149.241C964.298 147.01 962.066 144.324 958.601 143.238Z" fill="#C2D0E1" fill-opacity="0.3"></path>
<path d="M405.735 53.1016C402.094 53.2723 399.082 51.5227 398.968 49.1908C398.854 46.859 401.703 44.8216 405.326 44.6481C408.95 44.4746 411.979 46.227 412.093 48.5589C412.207 50.8907 409.359 52.9246 405.735 53.1016Z" fill="#C2D0E1" fill-opacity="0.3"></path>
<path d="M958.844 141.364C955.203 141.535 952.192 139.786 952.078 137.454C951.964 135.122 954.812 133.084 958.436 132.911C962.059 132.737 965.089 134.49 965.203 136.822C965.317 139.154 962.468 141.187 958.844 141.364Z" fill="#C2D0E1" fill-opacity="0.3"></path>
<path d="M552.339 115.788C551.76 119.399 548.273 119.803 544.759 122.676C539.605 126.903 535.791 125.468 535.354 122.421C534.918 119.373 538.565 117.294 538.916 114.088L538.925 114.031C539.4 110.841 536.398 107.909 537.594 105.069C538.79 102.229 542.838 101.817 546.755 107.205C549.422 110.878 552.713 112.152 552.339 115.788Z" fill="#C2D0E1" fill-opacity="0.3"></path>
<path d="M553.902 124.885C551.39 122.522 548.141 121.915 546.618 123.526C545.095 125.137 545.888 128.354 548.389 130.715C550.891 133.076 554.154 133.685 555.677 132.074C557.2 130.463 556.394 127.241 553.902 124.885Z" fill="#C2D0E1" fill-opacity="0.3"></path>
<path d="M556.157 107.388C553.139 109.037 549.827 108.799 548.762 106.856C547.697 104.913 549.28 101.998 552.298 100.348C555.316 98.6989 558.628 98.9374 559.693 100.884C560.758 102.83 559.175 105.738 556.157 107.388Z" fill="#C2D0E1" fill-opacity="0.3"></path>
<path d="M561.854 117.97C558.393 116.885 555.014 117.809 554.321 120.04C553.627 122.271 555.856 124.957 559.317 126.042C562.779 127.127 566.158 126.204 566.855 123.973C567.552 121.742 565.316 119.056 561.854 117.97Z" fill="#C2D0E1" fill-opacity="0.3"></path>
<path d="M562.094 116.092C558.471 116.266 555.442 114.513 555.328 112.182C555.214 109.85 558.062 107.812 561.686 107.639C565.309 107.465 568.339 109.218 568.452 111.553C568.565 113.889 565.717 115.922 562.094 116.092Z" fill="#C2D0E1" fill-opacity="0.3"></path>
</g>
<defs>
<clipPath id="clip0_1392_12670">
<rect width="1060" height="161" fill="white" transform="matrix(1 0 0 -1 0 161)"></rect>
</clipPath>
</defs>
</svg>
